<?xml version="1.0" encoding="UTF-8"?>
<!DOCTYPE svg PUBLIC "-//W3C//DTD SVG 1.1//EN" "http://www.w3.org/Graphics/SVG/1.1/DTD/svg11.dtd">
<svg xmlns="http://www.w3.org/2000/svg" version="1.1" width="180px" height="180px" style="shape-rendering:geometricPrecision; text-rendering:geometricPrecision; image-rendering:optimizeQuality; fill-rule:evenodd; clip-rule:evenodd" xmlns:xlink="http://www.w3.org/1999/xlink">
<g><path style="opacity:0.275" fill="#393c46" d="M 33.5,-0.5 C 35.5,-0.5 37.5,-0.5 39.5,-0.5C 42.0232,0.384409 44.6898,1.21774 47.5,2C 48.3805,2.7083 49.0472,3.54163 49.5,4.5C 47.8333,3.83333 46.1667,3.16667 44.5,2.5C 43.1667,2.5 41.8333,2.5 40.5,2.5C 37.7131,1.52333 34.7131,1.19 31.5,1.5C 32.1667,0.833333 32.8333,0.166667 33.5,-0.5 Z"/></g>
<g><path style="opacity:0.814" fill="#827a7b" d="M 31.5,1.5 C 34.7131,1.19 37.7131,1.52333 40.5,2.5C 36.4659,2.50454 32.4659,2.83787 28.5,3.5C 28.9731,2.09368 29.9731,1.42702 31.5,1.5 Z"/></g>
<g><path style="opacity:0.153" fill="#383942" d="M 28.5,3.5 C 26.823,5.53982 25.1563,7.53982 23.5,9.5C 23.7717,6.26779 25.4384,4.26779 28.5,3.5 Z"/></g>
<g><path style="opacity:0.353" fill="#635758" d="M 44.5,2.5 C 46.1667,3.16667 47.8333,3.83333 49.5,4.5C 53.3002,6.96265 55.9668,10.296 57.5,14.5C 54.1536,10.4961 50.1536,7.16274 45.5,4.5C 45.1667,3.83333 44.8333,3.16667 44.5,2.5 Z"/></g>
<g><path style="opacity:1" fill="#c09076" d="M 45.5,4.5 C 50.1536,7.16274 54.1536,10.4961 57.5,14.5C 58.3382,14.8417 58.6716,15.5084 58.5,16.5C 58.5,18.5 58.5,20.5 58.5,22.5C 57.8333,22.5 57.1667,22.5 56.5,22.5C 55.5263,20.9147 54.0263,19.9147 52,19.5C 50.2429,13.7554 46.4096,10.7554 40.5,10.5C 38.8212,10.7148 37.8212,10.0481 37.5,8.5C 38.0431,8.44001 38.3764,8.10667 38.5,7.5C 36.9547,6.54811 35.288,6.21478 33.5,6.5C 37.0293,4.57723 41.0293,3.91057 45.5,4.5 Z"/></g>
<g><path style="opacity:1" fill="#c18065" d="M 33.5,6.5 C 35.288,6.21478 36.9547,6.54811 38.5,7.5C 38.3764,8.10667 38.0431,8.44001 37.5,8.5C 34.0017,8.56527 33.5017,9.8986 36,12.5C 36.3019,18.5331 36.8019,24.5331 37.5,30.5C 36.1667,30.5 34.8333,30.5 33.5,30.5C 33.9984,27.3192 33.1651,24.6525 31,22.5C 30.2086,23.745 29.7086,25.0783 29.5,26.5C 28.5386,24.7354 28.2053,22.7354 28.5,20.5C 23.0124,21.4375 20.3457,24.7708 20.5,30.5C 21.5,30.5 22.5,30.5 23.5,30.5C 22.5115,33.8174 21.5115,37.1508 20.5,40.5C 19.8333,40.5 19.1667,40.5 18.5,40.5C 18.3342,35.8215 18.5008,31.1548 19,26.5C 22.1774,21.1351 24.6774,15.4685 26.5,9.5C 28.955,8.64522 31.2883,7.64522 33.5,6.5 Z"/></g>
<g><path style="opacity:1" fill="#dba78c" d="M 40.5,10.5 C 46.4096,10.7554 50.2429,13.7554 52,19.5C 54.0263,19.9147 55.5263,20.9147 56.5,22.5C 57.6584,27.8866 58.9917,33.2199 60.5,38.5C 59.8333,38.5 59.1667,38.5 58.5,38.5C 58.1667,38.5 57.8333,38.5 57.5,38.5C 58.0827,31.9043 55.7493,26.7376 50.5,23C 51.9023,21.6575 51.5689,20.8242 49.5,20.5C 48.09,20.8678 47.09,21.7011 46.5,23C 47.8613,24.5843 48.528,26.4176 48.5,28.5C 40.696,25.8856 38.696,20.8856 42.5,13.5C 41.3881,12.7348 40.7214,11.7348 40.5,10.5 Z"/></g>
<g><path style="opacity:0.89" fill="#b69385" d="M 40.5,2.5 C 41.8333,2.5 43.1667,2.5 44.5,2.5C 44.8333,3.16667 45.1667,3.83333 45.5,4.5C 41.0293,3.91057 37.0293,4.57723 33.5,6.5C 31.2883,7.64522 28.955,8.64522 26.5,9.5C 24.6774,15.4685 22.1774,21.1351 19,26.5C 18.5008,31.1548 18.3342,35.8215 18.5,40.5C 18.6716,41.4916 18.3382,42.1583 17.5,42.5C 17.3339,36.8236 17.5006,31.1569 18,25.5C 19.8808,21.6928 21.0474,17.6928 21.5,13.5C 21.6596,11.847 22.3263,10.5137 23.5,9.5C 25.1563,7.53982 26.823,5.53982 28.5,3.5C 32.4659,2.83787 36.4659,2.50454 40.5,2.5 Z"/></g>
<g><path style="opacity:1" fill="#eab497" d="M 57.5,38.5 C 56.3121,37.3157 55.1455,37.3157 54,38.5C 53.8267,44.0158 53.3267,49.3491 52.5,54.5C 52.623,48.5843 52.2897,42.5843 51.5,36.5C 51.0358,34.0251 50.0358,32.0251 48.5,30.5C 48.5,29.8333 48.5,29.1667 48.5,28.5C 48.528,26.4176 47.8613,24.5843 46.5,23C 47.09,21.7011 48.09,20.8678 49.5,20.5C 51.5689,20.8242 51.9023,21.6575 50.5,23C 55.7493,26.7376 58.0827,31.9043 57.5,38.5 Z"/></g>
<g><path style="opacity:0.922" fill="#908684" d="M 179.5,30.5 C 179.5,31.1667 179.5,31.8333 179.5,32.5C 178.675,34.8102 177.342,36.8102 175.5,38.5C 175.539,37.4168 175.873,36.4168 176.5,35.5C 174.604,34.5344 172.604,34.2011 170.5,34.5C 170.5,34.1667 170.5,33.8333 170.5,33.5C 172.942,30.4289 175.942,29.4289 179.5,30.5 Z"/></g>
<g><path style="opacity:0.49" fill="#75605e" d="M 21.5,13.5 C 21.0474,17.6928 19.8808,21.6928 18,25.5C 17.5006,31.1569 17.3339,36.8236 17.5,42.5C 17.5,43.1667 17.1667,43.5 16.5,43.5C 16.3338,37.1579 16.5005,30.8246 17,24.5C 18.0377,20.5317 19.5377,16.865 21.5,13.5 Z"/></g>
<g><path style="opacity:0.459" fill="#7e635c" d="M 58.5,16.5 C 61.7206,25.4351 66.3873,33.6017 72.5,41C 75.5131,41.5022 78.5131,42.0022 81.5,42.5C 81.1667,43.8333 80.8333,45.1667 80.5,46.5C 77.1088,46.7029 74.1088,45.7029 71.5,43.5C 67.0617,38.2791 63.395,32.6124 60.5,26.5C 59.3263,25.4863 58.6596,24.153 58.5,22.5C 58.5,20.5 58.5,18.5 58.5,16.5 Z"/></g>
<g><path style="opacity:1" fill="#e08c67" d="M 29.5,26.5 C 29.5,29.1667 29.5,31.8333 29.5,34.5C 29.2289,35.5519 29.0622,36.8853 29,38.5C 28.3005,36.968 27.1338,35.968 25.5,35.5C 24.1254,42.1176 23.6254,48.7843 24,55.5C 26.0581,54.7709 27.8914,53.7709 29.5,52.5C 30.1667,52.5 30.8333,52.5 31.5,52.5C 31.5,54.1667 31.5,55.8333 31.5,57.5C 30.1667,57.5 28.8333,57.5 27.5,57.5C 27.366,59.2915 27.6993,60.9582 28.5,62.5C 26.9557,62.2969 25.6223,61.6302 24.5,60.5C 23.8333,62.5 23.1667,64.5 22.5,66.5C 21.5713,65.3112 21.238,63.9778 21.5,62.5C 23.0467,55.0663 22.7133,47.733 20.5,40.5C 21.5115,37.1508 22.5115,33.8174 23.5,30.5C 22.5,30.5 21.5,30.5 20.5,30.5C 20.3457,24.7708 23.0124,21.4375 28.5,20.5C 28.2053,22.7354 28.5386,24.7354 29.5,26.5 Z"/></g>
<g><path style="opacity:1" fill="#cc9079" d="M 37.5,8.5 C 37.8212,10.0481 38.8212,10.7148 40.5,10.5C 40.7214,11.7348 41.3881,12.7348 42.5,13.5C 38.696,20.8856 40.696,25.8856 48.5,28.5C 48.5,29.1667 48.5,29.8333 48.5,30.5C 48.6641,33.1873 48.4974,35.854 48,38.5C 46.3005,39.4061 44.4672,39.7394 42.5,39.5C 42.5,36.5 42.5,33.5 42.5,30.5C 40.8333,30.5 39.1667,30.5 37.5,30.5C 36.8019,24.5331 36.3019,18.5331 36,12.5C 33.5017,9.8986 34.0017,8.56527 37.5,8.5 Z"/></g>
<g><path style="opacity:0.557" fill="#6c646a" d="M 170.5,33.5 C 170.5,33.8333 170.5,34.1667 170.5,34.5C 163.691,36.9522 156.691,38.6189 149.5,39.5C 156.357,37.3657 163.357,35.3657 170.5,33.5 Z"/></g>
<g><path style="opacity:1" fill="#c39b85" d="M 170.5,34.5 C 172.604,34.2011 174.604,34.5344 176.5,35.5C 175.873,36.4168 175.539,37.4168 175.5,38.5C 173.866,39.2066 172.532,40.3732 171.5,42C 169.866,42.4935 168.199,42.6602 166.5,42.5C 166.201,46.1326 164.201,48.1326 160.5,48.5C 159.507,46.9854 157.507,45.9854 154.5,45.5C 157.428,44.5159 160.428,44.1826 163.5,44.5C 163.843,42.5168 163.176,41.1834 161.5,40.5C 164.5,38.5 167.5,36.5 170.5,34.5 Z"/></g>
<g><path style="opacity:1" fill="#d87b5b" d="M 29.5,34.5 C 30.7647,35.5145 31.4313,37.0145 31.5,39C 30.3462,43.0602 29.3462,47.2269 28.5,51.5C 28.6236,52.1067 28.9569,52.44 29.5,52.5C 27.8914,53.7709 26.0581,54.7709 24,55.5C 23.6254,48.7843 24.1254,42.1176 25.5,35.5C 27.1338,35.968 28.3005,36.968 29,38.5C 29.0622,36.8853 29.2289,35.5519 29.5,34.5 Z"/></g>
<g><path style="opacity:1" fill="#c36f57" d="M 37.5,30.5 C 39.1667,30.5 40.8333,30.5 42.5,30.5C 42.5,33.5 42.5,36.5 42.5,39.5C 39.3027,40.1124 37.9694,42.1124 38.5,45.5C 38.1667,45.5 37.8333,45.5 37.5,45.5C 37.7852,43.712 37.4519,42.0453 36.5,40.5C 34.8888,41.3202 34.2222,42.6536 34.5,44.5C 33.5,44.5 32.5,44.5 31.5,44.5C 31.5,47.1667 31.5,49.8333 31.5,52.5C 30.8333,52.5 30.1667,52.5 29.5,52.5C 28.9569,52.44 28.6236,52.1067 28.5,51.5C 29.3462,47.2269 30.3462,43.0602 31.5,39C 31.4313,37.0145 30.7647,35.5145 29.5,34.5C 29.5,31.8333 29.5,29.1667 29.5,26.5C 29.7086,25.0783 30.2086,23.745 31,22.5C 33.1651,24.6525 33.9984,27.3192 33.5,30.5C 34.8333,30.5 36.1667,30.5 37.5,30.5 Z"/></g>
<g><path style="opacity:0.157" fill="#4e5357" d="M 90.5,42.5 C 101.133,43.8305 111.799,44.8305 122.5,45.5C 122.158,46.3382 121.492,46.6716 120.5,46.5C 110.463,46.3476 100.463,45.6809 90.5,44.5C 90.5,43.8333 90.5,43.1667 90.5,42.5 Z"/></g>
<g><path style="opacity:0.986" fill="#9e8781" d="M 170.5,34.5 C 167.5,36.5 164.5,38.5 161.5,40.5C 154.505,39.8783 147.838,40.8783 141.5,43.5C 137.217,44.4922 132.884,44.8256 128.5,44.5C 135.207,42.0965 142.207,40.4298 149.5,39.5C 156.691,38.6189 163.691,36.9522 170.5,34.5 Z"/></g>
<g><path style="opacity:1" fill="#c1977d" d="M 161.5,40.5 C 163.176,41.1834 163.843,42.5168 163.5,44.5C 160.428,44.1826 157.428,44.5159 154.5,45.5C 157.507,45.9854 159.507,46.9854 160.5,48.5C 160.5,48.8333 160.5,49.1667 160.5,49.5C 157.921,49.6061 155.588,48.9395 153.5,47.5C 143.173,48.2491 132.84,48.9158 122.5,49.5C 121.5,49.5 120.5,49.5 119.5,49.5C 119.389,48.8826 119.056,48.3826 118.5,48C 119.416,47.7216 120.082,47.2216 120.5,46.5C 121.492,46.6716 122.158,46.3382 122.5,45.5C 124.435,44.8505 126.435,44.5172 128.5,44.5C 132.884,44.8256 137.217,44.4922 141.5,43.5C 147.838,40.8783 154.505,39.8783 161.5,40.5 Z"/></g>
<g><path style="opacity:1" fill="#d99374" d="M 56.5,22.5 C 57.1667,22.5 57.8333,22.5 58.5,22.5C 58.6596,24.153 59.3263,25.4863 60.5,26.5C 60.1091,30.3834 60.7758,34.05 62.5,37.5C 63.6888,38.4287 65.0222,38.762 66.5,38.5C 66.3367,40.8568 66.5034,43.1902 67,45.5C 68.1827,44.269 69.3493,44.269 70.5,45.5C 69.1931,46.865 69.1931,48.1984 70.5,49.5C 70.5,51.1667 70.5,52.8333 70.5,54.5C 69.735,53.3398 68.735,52.3398 67.5,51.5C 65.802,52.6808 64.1353,52.6808 62.5,51.5C 64.2588,46.6524 63.5921,42.319 60.5,38.5C 58.9917,33.2199 57.6584,27.8866 56.5,22.5 Z"/></g>
<g><path style="opacity:1" fill="#988676" d="M 90.5,44.5 C 100.463,45.6809 110.463,46.3476 120.5,46.5C 120.082,47.2216 119.416,47.7216 118.5,48C 119.056,48.3826 119.389,48.8826 119.5,49.5C 117.801,49.3398 116.134,49.5065 114.5,50C 113.748,50.6708 113.414,51.5041 113.5,52.5C 111.8,51.984 110.467,50.984 109.5,49.5C 107.955,48.5481 106.288,48.2148 104.5,48.5C 104.38,47.4138 103.713,46.7472 102.5,46.5C 100.167,46.8333 99.8333,47.8333 101.5,49.5C 97.433,53.5859 95.433,52.5859 95.5,46.5C 93.2188,46.9227 91.5521,46.256 90.5,44.5 Z"/></g>
<g><path style="opacity:1" fill="#f9c0a3" d="M 57.5,38.5 C 57.8333,38.5 58.1667,38.5 58.5,38.5C 58.5,43.1667 58.5,47.8333 58.5,52.5C 56.5977,55.3373 55.931,58.6707 56.5,62.5C 54.9837,64.3912 53.6504,66.3912 52.5,68.5C 52.5,64.5 52.5,60.5 52.5,56.5C 52.5,55.8333 52.5,55.1667 52.5,54.5C 53.3267,49.3491 53.8267,44.0158 54,38.5C 55.1455,37.3157 56.3121,37.3157 57.5,38.5 Z"/></g>
<g><path style="opacity:1" fill="#956f58" d="M 153.5,47.5 C 153.509,49.3084 153.009,50.9751 152,52.5C 149.239,53.462 146.739,54.7954 144.5,56.5C 144.703,54.9557 145.37,53.6223 146.5,52.5C 145.975,51.8076 145.308,51.3076 144.5,51C 140.129,50.1725 135.795,50.3391 131.5,51.5C 132.193,52.5178 132.859,53.5178 133.5,54.5C 129.796,51.9331 126.129,51.9331 122.5,54.5C 122.5,52.8333 122.5,51.1667 122.5,49.5C 132.84,48.9158 143.173,48.2491 153.5,47.5 Z"/></g>
<g><path style="opacity:1" fill="#d89b82" d="M 48.5,30.5 C 50.0358,32.0251 51.0358,34.0251 51.5,36.5C 52.2897,42.5843 52.623,48.5843 52.5,54.5C 52.5,55.1667 52.5,55.8333 52.5,56.5C 51.8333,56.5 51.1667,56.5 50.5,56.5C 49.7857,54.1258 48.4524,52.1258 46.5,50.5C 47.3089,49.0144 47.3089,47.6811 46.5,46.5C 43.9159,45.6072 41.2492,45.2739 38.5,45.5C 37.9694,42.1124 39.3027,40.1124 42.5,39.5C 44.4672,39.7394 46.3005,39.4061 48,38.5C 48.4974,35.854 48.6641,33.1873 48.5,30.5 Z"/></g>
<g><path style="opacity:1" fill="#ae947c" d="M 81.5,42.5 C 84.5,42.5 87.5,42.5 90.5,42.5C 90.5,43.1667 90.5,43.8333 90.5,44.5C 91.5521,46.256 93.2188,46.9227 95.5,46.5C 95.433,52.5859 97.433,53.5859 101.5,49.5C 99.8333,47.8333 100.167,46.8333 102.5,46.5C 103.713,46.7472 104.38,47.4138 104.5,48.5C 103.883,48.3893 103.383,48.056 103,47.5C 102.506,49.1341 102.34,50.8008 102.5,52.5C 101.5,53.1667 100.5,53.8333 99.5,54.5C 98.8501,54.8039 98.1835,55.1373 97.5,55.5C 95.2943,53.4201 92.6276,52.0867 89.5,51.5C 88.6518,49.5914 88.3184,47.5914 88.5,45.5C 85.7212,45.2786 83.0545,45.612 80.5,46.5C 80.8333,45.1667 81.1667,43.8333 81.5,42.5 Z"/></g>
<g><path style="opacity:1" fill="#7b5a46" d="M 144.5,56.5 C 143.5,56.5 142.5,56.5 141.5,56.5C 139.379,56.6747 137.379,56.3414 135.5,55.5C 134.508,55.6716 133.842,55.3382 133.5,54.5C 132.859,53.5178 132.193,52.5178 131.5,51.5C 135.795,50.3391 140.129,50.1725 144.5,51C 145.308,51.3076 145.975,51.8076 146.5,52.5C 145.37,53.6223 144.703,54.9557 144.5,56.5 Z"/></g>
<g><path style="opacity:1" fill="#bd7f6a" d="M 38.5,45.5 C 41.2492,45.2739 43.9159,45.6072 46.5,46.5C 47.3089,47.6811 47.3089,49.0144 46.5,50.5C 48.4524,52.1258 49.7857,54.1258 50.5,56.5C 50.9756,59.9271 50.9756,63.2605 50.5,66.5C 49.1667,65.8333 48.1667,64.8333 47.5,63.5C 45.9547,62.5481 44.288,62.2148 42.5,62.5C 42.5,66.8333 42.5,71.1667 42.5,75.5C 39.515,77.4451 36.1817,78.4451 32.5,78.5C 32.5,78.1667 32.5,77.8333 32.5,77.5C 33.8333,77.5 35.1667,77.5 36.5,77.5C 36.5,76.5 36.5,75.5 36.5,74.5C 39.6343,74.2934 40.6343,72.9601 39.5,70.5C 39.9981,65.8478 40.3314,61.1811 40.5,56.5C 43.2469,56.8134 45.9135,56.48 48.5,55.5C 46.518,54.7838 44.8513,53.6171 43.5,52C 44.5536,50.6124 44.7203,49.1124 44,47.5C 42.0517,46.8906 40.2184,46.224 38.5,45.5 Z"/></g>
<g><path style="opacity:1" fill="#cc8e6c" d="M 60.5,26.5 C 63.395,32.6124 67.0617,38.2791 71.5,43.5C 74.1088,45.7029 77.1088,46.7029 80.5,46.5C 80.4326,47.9587 80.7659,49.2921 81.5,50.5C 81.9612,52.5504 82.6279,54.5504 83.5,56.5C 76.3847,58.8234 72.0514,56.49 70.5,49.5C 69.1931,48.1984 69.1931,46.865 70.5,45.5C 69.3493,44.269 68.1827,44.269 67,45.5C 66.5034,43.1902 66.3367,40.8568 66.5,38.5C 65.0222,38.762 63.6888,38.4287 62.5,37.5C 60.7758,34.05 60.1091,30.3834 60.5,26.5 Z"/></g>
<g><path style="opacity:1" fill="#caa383" d="M 99.5,54.5 C 99.5,55.1667 99.5,55.8333 99.5,56.5C 99.5,57.1667 99.5,57.8333 99.5,58.5C 98.6829,60.9686 98.1829,63.6353 98,66.5C 95.7278,62.8645 94.3945,58.8645 94,54.5C 93.586,54.0426 93.086,53.7093 92.5,53.5C 91.8182,54.2427 91.1515,54.9094 90.5,55.5C 88.8333,55.5 87.1667,55.5 85.5,55.5C 85.5,53.8333 85.5,52.1667 85.5,50.5C 84.1667,50.5 82.8333,50.5 81.5,50.5C 80.7659,49.2921 80.4326,47.9587 80.5,46.5C 83.0545,45.612 85.7212,45.2786 88.5,45.5C 88.3184,47.5914 88.6518,49.5914 89.5,51.5C 92.6276,52.0867 95.2943,53.4201 97.5,55.5C 98.1835,55.1373 98.8501,54.8039 99.5,54.5 Z"/></g>
<g><path style="opacity:1" fill="#977d68" d="M 153.5,47.5 C 155.588,48.9395 157.921,49.6061 160.5,49.5C 159.148,53.0267 157.148,56.1934 154.5,59C 151.462,59.3359 148.628,60.1693 146,61.5C 141.975,61.5079 140.475,59.8412 141.5,56.5C 142.5,56.5 143.5,56.5 144.5,56.5C 146.739,54.7954 149.239,53.462 152,52.5C 153.009,50.9751 153.509,49.3084 153.5,47.5 Z"/></g>
<g><path style="opacity:1" fill="#eead8b" d="M 58.5,38.5 C 59.1667,38.5 59.8333,38.5 60.5,38.5C 63.5921,42.319 64.2588,46.6524 62.5,51.5C 64.1353,52.6808 65.802,52.6808 67.5,51.5C 68.735,52.3398 69.735,53.3398 70.5,54.5C 71.4268,56.5762 73.0935,57.7428 75.5,58C 76.305,59.1127 76.9717,60.2794 77.5,61.5C 75.5887,60.925 73.922,59.925 72.5,58.5C 68.4862,58.6655 64.4862,58.4988 60.5,58C 58.8446,56.5557 58.178,54.7224 58.5,52.5C 58.5,47.8333 58.5,43.1667 58.5,38.5 Z"/></g>
<g><path style="opacity:1" fill="#f4ac8a" d="M 18.5,40.5 C 19.1667,40.5 19.8333,40.5 20.5,40.5C 22.7133,47.733 23.0467,55.0663 21.5,62.5C 20.8485,63.0906 20.1818,63.7573 19.5,64.5C 18.8324,61.6944 18.1657,59.0277 17.5,56.5C 17.0728,52.1756 16.7395,47.8422 16.5,43.5C 17.1667,43.5 17.5,43.1667 17.5,42.5C 18.3382,42.1583 18.6716,41.4916 18.5,40.5 Z"/></g>
<g><path style="opacity:1" fill="#a58d79" d="M 133.5,54.5 C 133.842,55.3382 134.508,55.6716 135.5,55.5C 135.5,56.1667 135.5,56.8333 135.5,57.5C 135.586,58.4959 135.252,59.3292 134.5,60C 132.687,59.9536 131.021,60.1203 129.5,60.5C 125.252,60.5588 122.919,58.5588 122.5,54.5C 126.129,51.9331 129.796,51.9331 133.5,54.5 Z"/></g>
<g><path style="opacity:1" fill="#8e7a65" d="M 119.5,49.5 C 120.5,49.5 121.5,49.5 122.5,49.5C 122.5,51.1667 122.5,52.8333 122.5,54.5C 122.919,58.5588 125.252,60.5588 129.5,60.5C 131.021,60.1203 132.687,59.9536 134.5,60C 135.252,59.3292 135.586,58.4959 135.5,57.5C 137.355,57.272 138.188,57.9387 138,59.5C 135.834,60.7315 133.667,61.7315 131.5,62.5C 130.883,62.3893 130.383,62.056 130,61.5C 129.51,62.7932 129.343,64.1266 129.5,65.5C 127.901,65.2322 126.568,65.5655 125.5,66.5C 125.5,67.1667 125.167,67.5 124.5,67.5C 123.717,65.6568 123.05,63.6568 122.5,61.5C 119.23,58.7127 116.23,55.7127 113.5,52.5C 113.414,51.5041 113.748,50.6708 114.5,50C 116.134,49.5065 117.801,49.3398 119.5,49.5 Z"/></g>
<g><path style="opacity:1" fill="#e5ac86" d="M 70.5,49.5 C 72.0514,56.49 76.3847,58.8234 83.5,56.5C 82.6279,54.5504 81.9612,52.5504 81.5,50.5C 82.8333,50.5 84.1667,50.5 85.5,50.5C 85.5,52.1667 85.5,53.8333 85.5,55.5C 85.7529,57.8273 85.0863,59.8273 83.5,61.5C 84.2421,62.2868 85.0754,62.9535 86,63.5C 86.4986,67.1516 86.6653,70.8183 86.5,74.5C 85.1266,74.6567 83.7932,74.49 82.5,74C 82.9574,73.586 83.2907,73.086 83.5,72.5C 82.2418,73.0164 81.2418,72.3497 80.5,70.5C 79.9417,67.2296 78.9417,64.2296 77.5,61.5C 76.9717,60.2794 76.305,59.1127 75.5,58C 73.0935,57.7428 71.4268,56.5762 70.5,54.5C 70.5,52.8333 70.5,51.1667 70.5,49.5 Z"/></g>
<g><path style="opacity:1" fill="#ebb994" d="M 85.5,55.5 C 87.1667,55.5 88.8333,55.5 90.5,55.5C 91.7731,59.3959 91.4398,63.2292 89.5,67C 89.944,70.1182 91.6107,71.9515 94.5,72.5C 94.5,74.5 94.5,76.5 94.5,78.5C 93.5,78.5 92.5,78.5 91.5,78.5C 89.6732,77.3088 88.0066,75.9755 86.5,74.5C 86.6653,70.8183 86.4986,67.1516 86,63.5C 85.0754,62.9535 84.2421,62.2868 83.5,61.5C 85.0863,59.8273 85.7529,57.8273 85.5,55.5 Z"/></g>
<g><path style="opacity:1" fill="#eac6a5" d="M 99.5,56.5 C 100.822,56.33 101.989,56.6634 103,57.5C 102.533,63.2327 104.7,67.5661 109.5,70.5C 110.091,75.1224 108.924,79.1224 106,82.5C 105.292,81.6195 104.458,80.9528 103.5,80.5C 103.606,77.3855 102.606,74.7188 100.5,72.5C 99.8734,67.8592 99.5401,63.1925 99.5,58.5C 99.5,57.8333 99.5,57.1667 99.5,56.5 Z"/></g>
<g><path style="opacity:1" fill="#7c6c57" d="M 175.5,38.5 C 172.819,43.5109 168.819,47.1775 163.5,49.5C 160.727,53.4896 158.727,57.8229 157.5,62.5C 152.456,62.1725 147.456,62.5059 142.5,63.5C 145,65.8341 145,68.1674 142.5,70.5C 141.5,70.5 140.5,70.5 139.5,70.5C 138.987,74.0192 136.987,76.3525 133.5,77.5C 134.348,79.4086 134.682,81.4086 134.5,83.5C 133.504,83.4142 132.671,83.7476 132,84.5C 131.495,82.4817 130.995,80.4817 130.5,78.5C 130.335,75.4816 130.502,72.4816 131,69.5C 131.98,71.0589 132.813,72.7256 133.5,74.5C 140.024,71.5902 141.524,67.2569 138,61.5C 137.667,62.1667 137.333,62.8333 137,63.5C 135.301,62.5939 133.467,62.2606 131.5,62.5C 133.667,61.7315 135.834,60.7315 138,59.5C 138.188,57.9387 137.355,57.272 135.5,57.5C 135.5,56.8333 135.5,56.1667 135.5,55.5C 137.379,56.3414 139.379,56.6747 141.5,56.5C 140.475,59.8412 141.975,61.5079 146,61.5C 148.628,60.1693 151.462,59.3359 154.5,59C 157.148,56.1934 159.148,53.0267 160.5,49.5C 160.5,49.1667 160.5,48.8333 160.5,48.5C 164.201,48.1326 166.201,46.1326 166.5,42.5C 168.199,42.6602 169.866,42.4935 171.5,42C 172.532,40.3732 173.866,39.2066 175.5,38.5 Z"/></g>
<g><path style="opacity:1" fill="#fbc6a0" d="M 72.5,78.5 C 73.0431,78.56 73.3764,78.8933 73.5,79.5C 71.1477,80.9847 68.8144,82.318 66.5,83.5C 65.1779,83.33 64.0113,83.6634 63,84.5C 61.951,82.8934 60.451,82.2267 58.5,82.5C 58.9175,81.7784 59.5842,81.2784 60.5,81C 58.842,80.2747 58.342,79.108 59,77.5C 60.1827,78.731 61.3493,78.731 62.5,77.5C 61.1387,75.9716 59.972,74.3049 59,72.5C 58.6667,72.8333 58.3333,73.1667 58,73.5C 57.6924,72.6919 57.1924,72.0253 56.5,71.5C 55.5522,74.715 54.2189,75.0484 52.5,72.5C 50.228,74.0528 48.8947,76.2195 48.5,79C 49.756,79.4169 50.4226,80.2502 50.5,81.5C 48.5648,80.8505 46.5648,80.5172 44.5,80.5C 42.9862,76.8098 44.3196,74.6431 48.5,74C 50.4641,72.549 51.7974,70.7157 52.5,68.5C 53.6504,66.3912 54.9837,64.3912 56.5,62.5C 60.2474,62.8008 63.7474,62.1342 67,60.5C 67.8333,60.8333 68.6667,61.1667 69.5,61.5C 67.5161,64.88 65.1828,68.0467 62.5,71C 63.448,71.4828 64.448,71.6495 65.5,71.5C 64.1667,77.5 66.5,79.8333 72.5,78.5 Z"/></g>
<g><path style="opacity:1" fill="#995a4d" d="M 37.5,45.5 C 37.8333,45.5 38.1667,45.5 38.5,45.5C 40.2184,46.224 42.0517,46.8906 44,47.5C 44.7203,49.1124 44.5536,50.6124 43.5,52C 44.8513,53.6171 46.518,54.7838 48.5,55.5C 45.9135,56.48 43.2469,56.8134 40.5,56.5C 40.3314,61.1811 39.9981,65.8478 39.5,70.5C 39.009,67.8477 37.3424,66.3477 34.5,66C 35.0253,65.3076 35.6919,64.8076 36.5,64.5C 37.312,60.8574 37.9786,57.1907 38.5,53.5C 38.2811,51.0847 36.9477,50.0847 34.5,50.5C 36.69,49.6255 37.69,47.9589 37.5,45.5 Z"/></g>
<g><path style="opacity:1" fill="#cfaf90" d="M 102.5,52.5 C 114.285,51.9051 117.285,56.7384 111.5,67C 111.648,68.2559 111.982,69.4226 112.5,70.5C 111.833,71.1667 111.167,71.8333 110.5,72.5C 110.672,71.5084 110.338,70.8417 109.5,70.5C 104.7,67.5661 102.533,63.2327 103,57.5C 101.989,56.6634 100.822,56.33 99.5,56.5C 99.5,55.8333 99.5,55.1667 99.5,54.5C 100.5,53.8333 101.5,53.1667 102.5,52.5 Z"/></g>
<g><path style="opacity:1" fill="#b69b81" d="M 104.5,48.5 C 106.288,48.2148 107.955,48.5481 109.5,49.5C 110.467,50.984 111.8,51.984 113.5,52.5C 116.23,55.7127 119.23,58.7127 122.5,61.5C 123.05,63.6568 123.717,65.6568 124.5,67.5C 124.5,68.1667 124.5,68.8333 124.5,69.5C 123.591,76.7605 121.924,83.0938 119.5,88.5C 119.666,83.8215 119.499,79.1548 119,74.5C 118.617,73.944 118.117,73.6107 117.5,73.5C 117.665,70.1501 117.498,66.8168 117,63.5C 116.51,64.7932 116.343,66.1266 116.5,67.5C 115.5,67.5 114.5,67.5 113.5,67.5C 113.737,68.791 113.404,69.791 112.5,70.5C 111.982,69.4226 111.648,68.2559 111.5,67C 117.285,56.7384 114.285,51.9051 102.5,52.5C 102.34,50.8008 102.506,49.1341 103,47.5C 103.383,48.056 103.883,48.3893 104.5,48.5 Z"/></g>
<g><path style="opacity:1" fill="#80725e" d="M 131.5,62.5 C 133.467,62.2606 135.301,62.5939 137,63.5C 137.333,62.8333 137.667,62.1667 138,61.5C 141.524,67.2569 140.024,71.5902 133.5,74.5C 132.813,72.7256 131.98,71.0589 131,69.5C 130.502,72.4816 130.335,75.4816 130.5,78.5C 130.167,78.5 129.833,78.5 129.5,78.5C 129.5,74.1667 129.5,69.8333 129.5,65.5C 129.343,64.1266 129.51,62.7932 130,61.5C 130.383,62.056 130.883,62.3893 131.5,62.5 Z"/></g>
<g><path style="opacity:1" fill="#7b3b2f" d="M 34.5,50.5 C 36.9477,50.0847 38.2811,51.0847 38.5,53.5C 37.9786,57.1907 37.312,60.8574 36.5,64.5C 35.6919,64.8076 35.0253,65.3076 34.5,66C 37.3424,66.3477 39.009,67.8477 39.5,70.5C 40.6343,72.9601 39.6343,74.2934 36.5,74.5C 35.2502,74.5774 34.4169,75.244 34,76.5C 33.6667,76.1667 33.3333,75.8333 33,75.5C 32.6798,70.977 32.1798,66.477 31.5,62C 32.7334,58.1074 33.7334,54.274 34.5,50.5 Z"/></g>
<g><path style="opacity:1" fill="#f2ae7e" d="M 17.5,56.5 C 18.1657,59.0277 18.8324,61.6944 19.5,64.5C 20.1818,63.7573 20.8485,63.0906 21.5,62.5C 21.238,63.9778 21.5713,65.3112 22.5,66.5C 23.1667,64.5 23.8333,62.5 24.5,60.5C 25.6223,61.6302 26.9557,62.2969 28.5,62.5C 28.5701,66.4248 27.9034,70.0915 26.5,73.5C 26.6621,71.4727 26.4955,69.4727 26,67.5C 24.1827,69.4161 23.016,71.7494 22.5,74.5C 19.8955,74.4104 17.2288,75.077 14.5,76.5C 13.7918,78.7451 12.7918,80.7451 11.5,82.5C 13.7076,73.8781 15.7076,65.2115 17.5,56.5 Z"/></g>
<g><path style="opacity:1" fill="#ecb294" d="M 50.5,56.5 C 51.1667,56.5 51.8333,56.5 52.5,56.5C 52.5,60.5 52.5,64.5 52.5,68.5C 51.7974,70.7157 50.4641,72.549 48.5,74C 44.3196,74.6431 42.9862,76.8098 44.5,80.5C 42.8235,79.8166 42.1568,78.4832 42.5,76.5C 42.5,76.1667 42.5,75.8333 42.5,75.5C 42.5,71.1667 42.5,66.8333 42.5,62.5C 44.288,62.2148 45.9547,62.5481 47.5,63.5C 48.1667,64.8333 49.1667,65.8333 50.5,66.5C 50.9756,63.2605 50.9756,59.9271 50.5,56.5 Z"/></g>
<g><path style="opacity:1" fill="#f8be98" d="M 58.5,52.5 C 58.178,54.7224 58.8446,56.5557 60.5,58C 64.4862,58.4988 68.4862,58.6655 72.5,58.5C 69.8832,64.7292 68.5499,71.0625 68.5,77.5C 70.099,77.2322 71.4324,77.5655 72.5,78.5C 66.5,79.8333 64.1667,77.5 65.5,71.5C 64.448,71.6495 63.448,71.4828 62.5,71C 65.1828,68.0467 67.5161,64.88 69.5,61.5C 68.6667,61.1667 67.8333,60.8333 67,60.5C 63.7474,62.1342 60.2474,62.8008 56.5,62.5C 55.931,58.6707 56.5977,55.3373 58.5,52.5 Z"/></g>
<g><path style="opacity:1" fill="#f2b690" d="M 72.5,58.5 C 73.922,59.925 75.5887,60.925 77.5,61.5C 78.9417,64.2296 79.9417,67.2296 80.5,70.5C 81.2418,72.3497 82.2418,73.0164 83.5,72.5C 83.2907,73.086 82.9574,73.586 82.5,74C 83.7932,74.49 85.1266,74.6567 86.5,74.5C 88.0066,75.9755 89.6732,77.3088 91.5,78.5C 87.7879,78.6584 84.2879,78.6584 81,78.5C 80.51,79.7932 80.3433,81.1266 80.5,82.5C 76.8081,82.5168 73.8081,83.8501 71.5,86.5C 69.8333,86.5 68.1667,86.5 66.5,86.5C 66.5,85.5 66.5,84.5 66.5,83.5C 68.8144,82.318 71.1477,80.9847 73.5,79.5C 73.3764,78.8933 73.0431,78.56 72.5,78.5C 71.4324,77.5655 70.099,77.2322 68.5,77.5C 68.5499,71.0625 69.8832,64.7292 72.5,58.5 Z"/></g>
<g><path style="opacity:1" fill="#d8a784" d="M 99.5,58.5 C 99.5401,63.1925 99.8734,67.8592 100.5,72.5C 99.5028,72.4701 98.8361,72.9701 98.5,74C 99.3479,76.7695 99.6813,79.6029 99.5,82.5C 94.1563,82.334 88.8229,82.5006 83.5,83C 81.563,83.1216 80.2297,83.955 79.5,85.5C 78.209,85.2627 77.209,85.596 76.5,86.5C 74.2512,87.0798 72.5846,88.4131 71.5,90.5C 70.8333,90.5 70.5,90.8333 70.5,91.5C 70.1667,91.5 69.8333,91.5 69.5,91.5C 69.3915,89.4862 70.0582,87.8195 71.5,86.5C 73.8081,83.8501 76.8081,82.5168 80.5,82.5C 80.3433,81.1266 80.51,79.7932 81,78.5C 84.2879,78.6584 87.7879,78.6584 91.5,78.5C 92.5,78.5 93.5,78.5 94.5,78.5C 94.5,76.5 94.5,74.5 94.5,72.5C 91.6107,71.9515 89.944,70.1182 89.5,67C 91.4398,63.2292 91.7731,59.3959 90.5,55.5C 91.1515,54.9094 91.8182,54.2427 92.5,53.5C 93.086,53.7093 93.586,54.0426 94,54.5C 94.3945,58.8645 95.7278,62.8645 98,66.5C 98.1829,63.6353 98.6829,60.9686 99.5,58.5 Z"/></g>
<g><path style="opacity:1" fill="#726b56" d="M 157.5,62.5 C 156.522,66.6064 154.688,70.2731 152,73.5C 151.506,75.1341 151.34,76.8008 151.5,78.5C 148.916,79.0483 147.916,80.715 148.5,83.5C 146.805,82.9886 145.139,82.3219 143.5,81.5C 144.976,80.1198 145.976,78.4531 146.5,76.5C 145.253,74.9579 145.253,73.4579 146.5,72C 145.437,70.8118 144.103,70.3118 142.5,70.5C 145,68.1674 145,65.8341 142.5,63.5C 147.456,62.5059 152.456,62.1725 157.5,62.5 Z"/></g>
<g><path style="opacity:1" fill="#bf7551" d="M 31.5,57.5 C 30.645,58.5307 29.9783,59.6974 29.5,61C 31.1651,66.0368 30.8317,70.8701 28.5,75.5C 29.9492,76.1719 31.2825,76.8386 32.5,77.5C 30.5,77.5 28.5,77.5 26.5,77.5C 26.5,76.5 26.5,75.5 26.5,74.5C 26.5,74.1667 26.5,73.8333 26.5,73.5C 27.9034,70.0915 28.5701,66.4248 28.5,62.5C 27.6993,60.9582 27.366,59.2915 27.5,57.5C 28.8333,57.5 30.1667,57.5 31.5,57.5 Z"/></g>
<g><path style="opacity:1" fill="#fdcba5" d="M 58.5,82.5 C 55.7212,82.7214 53.0545,82.388 50.5,81.5C 50.4226,80.2502 49.756,79.4169 48.5,79C 48.8947,76.2195 50.228,74.0528 52.5,72.5C 54.2189,75.0484 55.5522,74.715 56.5,71.5C 57.1924,72.0253 57.6924,72.6919 58,73.5C 58.3333,73.1667 58.6667,72.8333 59,72.5C 59.972,74.3049 61.1387,75.9716 62.5,77.5C 61.3493,78.731 60.1827,78.731 59,77.5C 58.342,79.108 58.842,80.2747 60.5,81C 59.5842,81.2784 58.9175,81.7784 58.5,82.5 Z"/></g>
<g><path style="opacity:1" fill="#d5c1a5" d="M 125.5,66.5 C 126.5,66.5 127.5,66.5 128.5,66.5C 128.666,71.1785 128.499,75.8452 128,80.5C 127.311,81.3567 126.478,82.0233 125.5,82.5C 124.508,78.2172 124.174,73.8839 124.5,69.5C 124.5,68.8333 124.5,68.1667 124.5,67.5C 125.167,67.5 125.5,67.1667 125.5,66.5 Z"/></g>
<g><path style="opacity:1" fill="#8e8068" d="M 142.5,70.5 C 144.103,70.3118 145.437,70.8118 146.5,72C 145.253,73.4579 145.253,74.9579 146.5,76.5C 145.976,78.4531 144.976,80.1198 143.5,81.5C 145.139,82.3219 146.805,82.9886 148.5,83.5C 149.822,83.33 150.989,83.6634 152,84.5C 152.514,87.0282 153.68,89.1949 155.5,91C 155.167,91.3333 154.833,91.6667 154.5,92C 150.098,90.7027 145.431,90.2027 140.5,90.5C 140.167,90.5 139.833,90.5 139.5,90.5C 140.402,86.1196 141.069,81.453 141.5,76.5C 136.582,76.1719 134.582,78.5052 135.5,83.5C 135.167,83.5 134.833,83.5 134.5,83.5C 134.682,81.4086 134.348,79.4086 133.5,77.5C 136.987,76.3525 138.987,74.0192 139.5,70.5C 140.5,70.5 141.5,70.5 142.5,70.5 Z"/></g>
<g><path style="opacity:1" fill="#a15944" d="M 37.5,45.5 C 37.69,47.9589 36.69,49.6255 34.5,50.5C 33.7334,54.274 32.7334,58.1074 31.5,62C 32.1798,66.477 32.6798,70.977 33,75.5C 33.3333,75.8333 33.6667,76.1667 34,76.5C 34.4169,75.244 35.2502,74.5774 36.5,74.5C 36.5,75.5 36.5,76.5 36.5,77.5C 35.1667,77.5 33.8333,77.5 32.5,77.5C 31.2825,76.8386 29.9492,76.1719 28.5,75.5C 30.8317,70.8701 31.1651,66.0368 29.5,61C 29.9783,59.6974 30.645,58.5307 31.5,57.5C 31.5,55.8333 31.5,54.1667 31.5,52.5C 31.5,49.8333 31.5,47.1667 31.5,44.5C 32.5,44.5 33.5,44.5 34.5,44.5C 34.2222,42.6536 34.8888,41.3202 36.5,40.5C 37.4519,42.0453 37.7852,43.712 37.5,45.5 Z"/></g>
<g><path style="opacity:1" fill="#8f7057" d="M 117.5,73.5 C 118.117,73.6107 118.617,73.944 119,74.5C 119.499,79.1548 119.666,83.8215 119.5,88.5C 118.85,88.8039 118.183,89.1373 117.5,89.5C 116.783,85.2607 115.783,81.0941 114.5,77C 114.707,75.0503 115.707,73.8836 117.5,73.5 Z"/></g>
<g><path style="opacity:1" fill="#a78970" d="M 117.5,73.5 C 115.707,73.8836 114.707,75.0503 114.5,77C 115.783,81.0941 116.783,85.2607 117.5,89.5C 118.183,89.1373 118.85,88.8039 119.5,88.5C 119.335,91.8499 119.502,95.1832 120,98.5C 120.278,97.5842 120.778,96.9175 121.5,96.5C 120.686,101.119 120.353,105.786 120.5,110.5C 119.518,106.25 118.352,101.916 117,97.5C 116.617,96.944 116.117,96.6107 115.5,96.5C 115.5,94.1667 115.5,91.8333 115.5,89.5C 115.663,87.1432 115.497,84.8098 115,82.5C 111.121,80.3164 109.621,76.9831 110.5,72.5C 111.167,71.8333 111.833,71.1667 112.5,70.5C 113.404,69.791 113.737,68.791 113.5,67.5C 114.5,67.5 115.5,67.5 116.5,67.5C 116.343,66.1266 116.51,64.7932 117,63.5C 117.498,66.8168 117.665,70.1501 117.5,73.5 Z"/></g>
<g><path style="opacity:1" fill="#d1aa8b" d="M 109.5,70.5 C 110.338,70.8417 110.672,71.5084 110.5,72.5C 109.621,76.9831 111.121,80.3164 115,82.5C 115.497,84.8098 115.663,87.1432 115.5,89.5C 114.549,88.0813 114.216,86.4147 114.5,84.5C 113.5,84.5 112.5,84.5 111.5,84.5C 110.108,83.478 108.775,83.8113 107.5,85.5C 105.502,89.9884 103.502,94.3217 101.5,98.5C 101.649,97.448 101.483,96.448 101,95.5C 99.1335,94.4734 97.3002,93.4734 95.5,92.5C 95.5,91.1667 95.5,89.8333 95.5,88.5C 97.143,88.4802 98.4763,89.1468 99.5,90.5C 100.524,89.1468 101.857,88.4802 103.5,88.5C 104.63,85.8033 104.63,83.1367 103.5,80.5C 104.458,80.9528 105.292,81.6195 106,82.5C 108.924,79.1224 110.091,75.1224 109.5,70.5 Z"/></g>
<g><path style="opacity:1" fill="#b5a487" d="M 139.5,90.5 C 137.833,90.5 136.167,90.5 134.5,90.5C 134.448,88.0971 134.781,85.7638 135.5,83.5C 134.582,78.5052 136.582,76.1719 141.5,76.5C 141.069,81.453 140.402,86.1196 139.5,90.5 Z"/></g>
<g><path style="opacity:1" fill="#fcc7a7" d="M 50.5,81.5 C 53.0545,82.388 55.7212,82.7214 58.5,82.5C 60.451,82.2267 61.951,82.8934 63,84.5C 64.0113,83.6634 65.1779,83.33 66.5,83.5C 66.5,84.5 66.5,85.5 66.5,86.5C 68.1667,86.5 69.8333,86.5 71.5,86.5C 70.0582,87.8195 69.3915,89.4862 69.5,91.5C 66.4166,94.1431 65.0833,93.1431 65.5,88.5C 64.5,88.5 63.5,88.5 62.5,88.5C 56.0452,89.8961 52.0452,87.5628 50.5,81.5 Z"/></g>
<g><path style="opacity:1" fill="#bba38c" d="M 125.5,66.5 C 126.568,65.5655 127.901,65.2322 129.5,65.5C 129.5,69.8333 129.5,74.1667 129.5,78.5C 129.5,80.5 129.5,82.5 129.5,84.5C 128.5,84.5 127.5,84.5 126.5,84.5C 124.533,87.4107 123.533,90.744 123.5,94.5C 122.5,94.8333 121.833,95.5 121.5,96.5C 120.778,96.9175 120.278,97.5842 120,98.5C 119.502,95.1832 119.335,91.8499 119.5,88.5C 121.924,83.0938 123.591,76.7605 124.5,69.5C 124.174,73.8839 124.508,78.2172 125.5,82.5C 126.478,82.0233 127.311,81.3567 128,80.5C 128.499,75.8452 128.666,71.1785 128.5,66.5C 127.5,66.5 126.5,66.5 125.5,66.5 Z"/></g>
<g><path style="opacity:0.954" fill="#fbc99e" d="M 10.5,110.5 C 12.7553,115.483 14.422,120.816 15.5,126.5C 15.1667,126.5 14.8333,126.5 14.5,126.5C 5.58066,115.187 3.58066,102.853 8.5,89.5C 8.55999,90.0431 8.89333,90.3764 9.5,90.5C 11.5086,88.4572 13.5086,86.4572 15.5,84.5C 19.3977,86.6857 19.3977,88.8524 15.5,91C 14.552,91.4828 13.552,91.6495 12.5,91.5C 12.5079,94.5448 12.8413,97.5448 13.5,100.5C 8.23057,102.5 7.23057,105.834 10.5,110.5 Z"/></g>
<g><path style="opacity:1" fill="#e1a077" d="M 42.5,75.5 C 42.5,75.8333 42.5,76.1667 42.5,76.5C 41.3509,76.7911 40.6842,77.6244 40.5,79C 40.6667,79.8333 40.8333,80.6667 41,81.5C 45.0563,82.9691 47.8897,85.6358 49.5,89.5C 49.5643,91.5566 48.8976,93.2233 47.5,94.5C 46.2209,93.032 44.5542,92.3653 42.5,92.5C 42.5,91.1667 42.5,89.8333 42.5,88.5C 38.327,88.7053 34.6603,90.0387 31.5,92.5C 30.8333,92.1667 30.1667,91.8333 29.5,91.5C 29.1803,88.2855 29.1803,84.9521 29.5,81.5C 30.5,81.5 31.5,81.5 32.5,81.5C 32.5,80.5 32.5,79.5 32.5,78.5C 36.1817,78.4451 39.515,77.4451 42.5,75.5 Z"/></g>
<g><path style="opacity:1" fill="#a97d62" d="M 100.5,72.5 C 102.606,74.7188 103.606,77.3855 103.5,80.5C 104.63,83.1367 104.63,85.8033 103.5,88.5C 101.857,88.4802 100.524,89.1468 99.5,90.5C 98.4763,89.1468 97.143,88.4802 95.5,88.5C 95.5,89.8333 95.5,91.1667 95.5,92.5C 94.5655,91.4324 94.2322,90.099 94.5,88.5C 92.6412,88.5391 91.3079,87.7058 90.5,86C 86.8484,85.5014 83.1817,85.3347 79.5,85.5C 80.2297,83.955 81.563,83.1216 83.5,83C 88.8229,82.5006 94.1563,82.334 99.5,82.5C 99.6813,79.6029 99.3479,76.7695 98.5,74C 98.8361,72.9701 99.5028,72.4701 100.5,72.5 Z"/></g>
<g><path style="opacity:1" fill="#f4b98c" d="M 26.5,73.5 C 26.5,73.8333 26.5,74.1667 26.5,74.5C 25.1882,75.1451 24.1882,76.1451 23.5,77.5C 28.4677,82.8814 28.4677,88.3814 23.5,94C 25.8225,97.8182 28.6559,98.6515 32,96.5C 33.3012,97.0981 34.1345,98.0981 34.5,99.5C 33.3881,100.265 32.7214,101.265 32.5,102.5C 31.7677,103.808 30.9344,105.142 30,106.5C 29.7811,105.062 29.2811,103.729 28.5,102.5C 27.795,105.089 27.795,107.756 28.5,110.5C 19.3304,110.4 18.3304,113.066 25.5,118.5C 23.8333,118.5 22.1667,118.5 20.5,118.5C 20.7984,122.601 19.1318,125.267 15.5,126.5C 14.422,120.816 12.7553,115.483 10.5,110.5C 9.7265,106.225 11.2265,103.225 15,101.5C 16.5972,98.7084 17.5972,95.7084 18,92.5C 19.892,90.9458 21.392,89.1124 22.5,87C 21.9681,84.9803 20.6348,84.147 18.5,84.5C 18.719,83.325 18.3857,82.325 17.5,81.5C 15.2062,82.7057 12.8728,83.7057 10.5,84.5C 10.3284,83.5084 10.6618,82.8417 11.5,82.5C 12.7918,80.7451 13.7918,78.7451 14.5,76.5C 17.2288,75.077 19.8955,74.4104 22.5,74.5C 23.016,71.7494 24.1827,69.4161 26,67.5C 26.4955,69.4727 26.6621,71.4727 26.5,73.5 Z"/></g>
<g><path style="opacity:1" fill="#ebad8a" d="M 42.5,76.5 C 42.1568,78.4832 42.8235,79.8166 44.5,80.5C 46.5648,80.5172 48.5648,80.8505 50.5,81.5C 52.0452,87.5628 56.0452,89.8961 62.5,88.5C 63.1495,90.4352 63.4828,92.4352 63.5,94.5C 61.2188,94.0773 59.5521,94.744 58.5,96.5C 54.8162,95.2722 51.1495,95.2722 47.5,96.5C 47.5,95.8333 47.5,95.1667 47.5,94.5C 48.8976,93.2233 49.5643,91.5566 49.5,89.5C 47.8897,85.6358 45.0563,82.9691 41,81.5C 40.8333,80.6667 40.6667,79.8333 40.5,79C 40.6842,77.6244 41.3509,76.7911 42.5,76.5 Z"/></g>
<g><path style="opacity:1" fill="#774c36" d="M 76.5,86.5 C 77.209,85.596 78.209,85.2627 79.5,85.5C 83.1817,85.3347 86.8484,85.5014 90.5,86C 91.3079,87.7058 92.6412,88.5391 94.5,88.5C 94.2322,90.099 94.5655,91.4324 95.5,92.5C 95.5,93.1667 95.5,93.8333 95.5,94.5C 95.1667,94.5 94.8333,94.5 94.5,94.5C 93.1667,93.1667 91.8333,91.8333 90.5,90.5C 90.4606,89.4168 90.1272,88.4168 89.5,87.5C 85.2172,86.5078 80.8839,86.1744 76.5,86.5 Z"/></g>
<g><path style="opacity:1" fill="#937f6c" d="M 129.5,78.5 C 129.833,78.5 130.167,78.5 130.5,78.5C 130.995,80.4817 131.495,82.4817 132,84.5C 132.671,83.7476 133.504,83.4142 134.5,83.5C 134.833,83.5 135.167,83.5 135.5,83.5C 134.781,85.7638 134.448,88.0971 134.5,90.5C 136.167,90.5 137.833,90.5 139.5,90.5C 139.833,90.5 140.167,90.5 140.5,90.5C 139.167,91.1667 137.833,91.8333 136.5,92.5C 135.71,93.4013 134.71,94.0679 133.5,94.5C 131.516,94.3832 129.85,95.0499 128.5,96.5C 127.319,95.4855 126.319,94.3188 125.5,93C 126.187,91.8382 126.353,90.6716 126,89.5C 125.015,91.1749 124.181,92.8415 123.5,94.5C 123.533,90.744 124.533,87.4107 126.5,84.5C 127.5,84.5 128.5,84.5 129.5,84.5C 129.5,82.5 129.5,80.5 129.5,78.5 Z"/></g>
<g><path style="opacity:1" fill="#eeb186" d="M 26.5,74.5 C 26.5,75.5 26.5,76.5 26.5,77.5C 28.5,77.5 30.5,77.5 32.5,77.5C 32.5,77.8333 32.5,78.1667 32.5,78.5C 32.5,79.5 32.5,80.5 32.5,81.5C 31.5,81.5 30.5,81.5 29.5,81.5C 29.1803,84.9521 29.1803,88.2855 29.5,91.5C 30.1667,91.8333 30.8333,92.1667 31.5,92.5C 34.6603,90.0387 38.327,88.7053 42.5,88.5C 42.5,89.8333 42.5,91.1667 42.5,92.5C 44.5542,92.3653 46.2209,93.032 47.5,94.5C 47.5,95.1667 47.5,95.8333 47.5,96.5C 47.5449,99.0772 46.5449,101.077 44.5,102.5C 43.8333,104.5 43.1667,106.5 42.5,108.5C 42.5,106.167 42.5,103.833 42.5,101.5C 40.4176,101.472 38.5843,102.139 37,103.5C 35.6439,102.62 34.1439,102.286 32.5,102.5C 32.7214,101.265 33.3881,100.265 34.5,99.5C 34.1345,98.0981 33.3012,97.0981 32,96.5C 28.6559,98.6515 25.8225,97.8182 23.5,94C 28.4677,88.3814 28.4677,82.8814 23.5,77.5C 24.1882,76.1451 25.1882,75.1451 26.5,74.5 Z"/></g>
<g><path style="opacity:1" fill="#3a2520" d="M 76.5,86.5 C 80.8839,86.1744 85.2172,86.5078 89.5,87.5C 90.1272,88.4168 90.4606,89.4168 90.5,90.5C 89.8333,93.5 89.1667,96.5 88.5,99.5C 88.5,96.5 88.5,93.5 88.5,90.5C 85.7847,89.5492 82.9514,88.8825 80,88.5C 77.0486,88.8825 74.2153,89.5492 71.5,90.5C 72.5846,88.4131 74.2512,87.0798 76.5,86.5 Z"/></g>
<g><path style="opacity:1" fill="#827464" d="M 133.5,94.5 C 132.833,95.1667 132.167,95.8333 131.5,96.5C 130.5,96.8333 129.833,97.5 129.5,98.5C 127.81,100.504 126.476,102.837 125.5,105.5C 124.311,106.429 122.978,106.762 121.5,106.5C 121.517,108.565 121.85,110.565 122.5,112.5C 121.833,112.5 121.167,112.5 120.5,112.5C 120.5,111.833 120.5,111.167 120.5,110.5C 120.353,105.786 120.686,101.119 121.5,96.5C 121.833,95.5 122.5,94.8333 123.5,94.5C 124.181,92.8415 125.015,91.1749 126,89.5C 126.353,90.6716 126.187,91.8382 125.5,93C 126.319,94.3188 127.319,95.4855 128.5,96.5C 129.85,95.0499 131.516,94.3832 133.5,94.5 Z"/></g>
<g><path style="opacity:1" fill="#a27965" d="M 68.5,94.5 C 68.3359,97.1873 68.5026,99.854 69,102.5C 70.6993,104.696 72.5327,106.696 74.5,108.5C 73.1667,108.5 71.8333,108.5 70.5,108.5C 69.2349,105.537 67.9016,102.537 66.5,99.5C 66.8008,97.5784 67.4675,95.9117 68.5,94.5 Z"/></g>
<g><path style="opacity:1" fill="#f9c397" d="M 10.5,110.5 C 7.23057,105.834 8.23057,102.5 13.5,100.5C 12.8413,97.5448 12.5079,94.5448 12.5,91.5C 13.552,91.6495 14.552,91.4828 15.5,91C 19.3977,88.8524 19.3977,86.6857 15.5,84.5C 13.5086,86.4572 11.5086,88.4572 9.5,90.5C 8.89333,90.3764 8.55999,90.0431 8.5,89.5C 8.40206,87.4471 9.06873,85.7804 10.5,84.5C 12.8728,83.7057 15.2062,82.7057 17.5,81.5C 18.3857,82.325 18.719,83.325 18.5,84.5C 20.6348,84.147 21.9681,84.9803 22.5,87C 21.392,89.1124 19.892,90.9458 18,92.5C 17.5972,95.7084 16.5972,98.7084 15,101.5C 11.2265,103.225 9.7265,106.225 10.5,110.5 Z"/></g>
<g><path style="opacity:1" fill="#1e1b18" d="M 136.5,92.5 C 139.833,92.5 143.167,92.5 146.5,92.5C 146.588,96.3055 145.921,99.9722 144.5,103.5C 144.624,104.107 144.957,104.44 145.5,104.5C 145.5,104.833 145.5,105.167 145.5,105.5C 143.799,110.205 140.466,112.538 135.5,112.5C 133.824,109.827 132.157,107.16 130.5,104.5C 130.747,103.287 131.414,102.62 132.5,102.5C 133.5,102.5 134.5,102.5 135.5,102.5C 135.5,101.5 135.5,100.5 135.5,99.5C 134.5,99.5 133.5,99.5 132.5,99.5C 131.596,98.791 131.263,97.791 131.5,96.5C 132.167,95.8333 132.833,95.1667 133.5,94.5C 134.71,94.0679 135.71,93.4013 136.5,92.5 Z"/></g>
<g><path style="opacity:1" fill="#f7c29a" d="M 58.5,96.5 C 59.5,96.5 60.5,96.5 61.5,96.5C 61.5,97.8333 61.5,99.1667 61.5,100.5C 59.8333,100.5 58.1667,100.5 56.5,100.5C 56.1007,104.116 55.1007,107.45 53.5,110.5C 51.1667,110.5 48.8333,110.5 46.5,110.5C 44.9605,108.162 44.2938,105.495 44.5,102.5C 46.5449,101.077 47.5449,99.0772 47.5,96.5C 51.1495,95.2722 54.8162,95.2722 58.5,96.5 Z"/></g>
<g><path style="opacity:1" fill="#b57d6a" d="M 95.5,92.5 C 97.3002,93.4734 99.1335,94.4734 101,95.5C 101.483,96.448 101.649,97.448 101.5,98.5C 99.5393,99.4602 97.8726,100.793 96.5,102.5C 96.8064,99.6146 96.4731,96.9479 95.5,94.5C 95.5,93.8333 95.5,93.1667 95.5,92.5 Z"/></g>
<g><path style="opacity:1" fill="#481f11" d="M 94.5,94.5 C 94.8333,94.5 95.1667,94.5 95.5,94.5C 96.4731,96.9479 96.8064,99.6146 96.5,102.5C 96.5,103.167 96.5,103.833 96.5,104.5C 95.1759,105.935 93.5092,106.935 91.5,107.5C 90.8933,107.376 90.56,107.043 90.5,106.5C 93.529,103.099 94.8624,99.0993 94.5,94.5 Z"/></g>
<g><path style="opacity:1" fill="#8f8883" d="M 132.5,99.5 C 133.5,99.5 134.5,99.5 135.5,99.5C 135.5,100.5 135.5,101.5 135.5,102.5C 134.5,102.5 133.5,102.5 132.5,102.5C 132.5,101.5 132.5,100.5 132.5,99.5 Z"/></g>
<g><path style="opacity:1" fill="#503c31" d="M 69.5,91.5 C 69.8333,91.5 70.1667,91.5 70.5,91.5C 70.2011,93.604 70.5344,95.604 71.5,97.5C 72.1067,97.3764 72.44,97.0431 72.5,96.5C 73.5,96.5 74.5,96.5 75.5,96.5C 74.8112,97.7072 74.6446,99.0406 75,100.5C 74.2496,101.126 73.4162,101.626 72.5,102C 74.0368,103.11 74.7035,104.61 74.5,106.5C 77.1667,106.5 79.8333,106.5 82.5,106.5C 81.0101,108.28 79.0101,108.946 76.5,108.5C 75.8333,108.5 75.1667,108.5 74.5,108.5C 72.5327,106.696 70.6993,104.696 69,102.5C 68.5026,99.854 68.3359,97.1873 68.5,94.5C 69.1098,93.609 69.4431,92.609 69.5,91.5 Z"/></g>
<g><path style="opacity:1" fill="#e9ae84" d="M 42.5,108.5 C 41.0821,110.308 39.0821,110.975 36.5,110.5C 35.0087,113.091 32.6753,114.091 29.5,113.5C 29.5,115.167 29.5,116.833 29.5,118.5C 28.5,118.5 27.5,118.5 26.5,118.5C 26.1667,118.5 25.8333,118.5 25.5,118.5C 18.3304,113.066 19.3304,110.4 28.5,110.5C 27.795,107.756 27.795,105.089 28.5,102.5C 29.2811,103.729 29.7811,105.062 30,106.5C 30.9344,105.142 31.7677,103.808 32.5,102.5C 34.1439,102.286 35.6439,102.62 37,103.5C 38.5843,102.139 40.4176,101.472 42.5,101.5C 42.5,103.833 42.5,106.167 42.5,108.5 Z"/></g>
<g><path style="opacity:1" fill="#f0ba90" d="M 61.5,100.5 C 61.5,102.5 61.5,104.5 61.5,106.5C 60.5,106.5 59.5,106.5 58.5,106.5C 58.5,107.833 58.5,109.167 58.5,110.5C 57.325,110.281 56.325,110.614 55.5,111.5C 56.5543,113.201 57.5543,114.868 58.5,116.5C 58.5,118.833 58.5,121.167 58.5,123.5C 56.901,123.768 55.5676,123.434 54.5,122.5C 54.4606,121.417 54.1272,120.417 53.5,119.5C 54.1667,118.833 54.8333,118.167 55.5,117.5C 54.6751,115.199 54.0084,112.865 53.5,110.5C 55.1007,107.45 56.1007,104.116 56.5,100.5C 58.1667,100.5 59.8333,100.5 61.5,100.5 Z"/></g>
<g><path style="opacity:0.996" fill="#565348" d="M 151.5,78.5 C 152.238,82.6429 154.071,86.3096 157,89.5C 156.894,94.4013 157.061,99.4013 157.5,104.5C 156.5,104.5 155.5,104.5 154.5,104.5C 154.799,102.396 154.466,100.396 153.5,98.5C 152.167,99.8333 150.833,99.8333 149.5,98.5C 148.128,100.527 146.795,102.527 145.5,104.5C 144.957,104.44 144.624,104.107 144.5,103.5C 145.921,99.9722 146.588,96.3055 146.5,92.5C 143.167,92.5 139.833,92.5 136.5,92.5C 137.833,91.8333 139.167,91.1667 140.5,90.5C 145.431,90.2027 150.098,90.7027 154.5,92C 154.833,91.6667 155.167,91.3333 155.5,91C 153.68,89.1949 152.514,87.0282 152,84.5C 150.989,83.6634 149.822,83.33 148.5,83.5C 147.916,80.715 148.916,79.0483 151.5,78.5 Z"/></g>
<g><path style="opacity:1" fill="#211e20" d="M 88.5,99.5 C 88.4431,100.609 88.1098,101.609 87.5,102.5C 85.8333,103.833 84.1667,105.167 82.5,106.5C 79.8333,106.5 77.1667,106.5 74.5,106.5C 74.7035,104.61 74.0368,103.11 72.5,102C 73.4162,101.626 74.2496,101.126 75,100.5C 74.6446,99.0406 74.8112,97.7072 75.5,96.5C 75.5,95.1667 75.5,93.8333 75.5,92.5C 71.9652,92.3369 70.9652,93.6702 72.5,96.5C 72.44,97.0431 72.1067,97.3764 71.5,97.5C 70.5344,95.604 70.2011,93.604 70.5,91.5C 70.5,90.8333 70.8333,90.5 71.5,90.5C 74.2153,89.5492 77.0486,88.8825 80,88.5C 82.9514,88.8825 85.7847,89.5492 88.5,90.5C 88.5,93.5 88.5,96.5 88.5,99.5 Z"/></g>
<g><path style="opacity:1" fill="#d2d3d0" d="M 75.5,96.5 C 74.5,96.5 73.5,96.5 72.5,96.5C 70.9652,93.6702 71.9652,92.3369 75.5,92.5C 75.5,93.8333 75.5,95.1667 75.5,96.5 Z"/></g>
<g><path style="opacity:1" fill="#d8bd98" d="M 90.5,90.5 C 91.8333,91.8333 93.1667,93.1667 94.5,94.5C 94.8624,99.0993 93.529,103.099 90.5,106.5C 87.0136,106.705 86.0136,105.371 87.5,102.5C 88.1098,101.609 88.4431,100.609 88.5,99.5C 89.1667,96.5 89.8333,93.5 90.5,90.5 Z"/></g>
<g><path style="opacity:1" fill="#dea88a" d="M 62.5,88.5 C 63.5,88.5 64.5,88.5 65.5,88.5C 65.0833,93.1431 66.4166,94.1431 69.5,91.5C 69.4431,92.609 69.1098,93.609 68.5,94.5C 67.4675,95.9117 66.8008,97.5784 66.5,99.5C 67.9016,102.537 69.2349,105.537 70.5,108.5C 70.8333,109.167 71.1667,109.833 71.5,110.5C 70.5,110.5 69.5,110.5 68.5,110.5C 68.1788,108.952 67.1788,108.285 65.5,108.5C 64.9084,105.873 64.5751,103.206 64.5,100.5C 63.5,100.5 62.5,100.5 61.5,100.5C 61.5,99.1667 61.5,97.8333 61.5,96.5C 60.5,96.5 59.5,96.5 58.5,96.5C 59.5521,94.744 61.2188,94.0773 63.5,94.5C 63.4828,92.4352 63.1495,90.4352 62.5,88.5 Z"/></g>
<g><path style="opacity:1" fill="#f4cdb0" d="M 111.5,84.5 C 112.967,89.3744 113.967,94.3744 114.5,99.5C 114.538,103.74 113.205,107.407 110.5,110.5C 112.323,104.629 112.823,98.6293 112,92.5C 106.05,93.2577 103.716,96.5911 105,102.5C 108.349,103.741 109.182,105.908 107.5,109C 108.044,109.717 108.711,110.217 109.5,110.5C 109.665,113.85 109.498,117.183 109,120.5C 108.329,119.748 107.496,119.414 106.5,119.5C 104.57,115.627 103.903,111.294 104.5,106.5C 103.167,106.5 101.833,106.5 100.5,106.5C 100.401,103.763 100.735,101.096 101.5,98.5C 103.502,94.3217 105.502,89.9884 107.5,85.5C 108.775,83.8113 110.108,83.478 111.5,84.5 Z"/></g>
<g><path style="opacity:1" fill="#fad8b8" d="M 110.5,110.5 C 110.167,110.5 109.833,110.5 109.5,110.5C 108.711,110.217 108.044,109.717 107.5,109C 109.182,105.908 108.349,103.741 105,102.5C 103.716,96.5911 106.05,93.2577 112,92.5C 112.823,98.6293 112.323,104.629 110.5,110.5 Z"/></g>
<g><path style="opacity:1" fill="#e8af89" d="M 61.5,100.5 C 62.5,100.5 63.5,100.5 64.5,100.5C 64.5751,103.206 64.9084,105.873 65.5,108.5C 67.1788,108.285 68.1788,108.952 68.5,110.5C 62.5407,109.778 61.2073,111.778 64.5,116.5C 62.5,117.833 60.5,117.833 58.5,116.5C 57.5543,114.868 56.5543,113.201 55.5,111.5C 56.325,110.614 57.325,110.281 58.5,110.5C 58.5,109.167 58.5,107.833 58.5,106.5C 59.5,106.5 60.5,106.5 61.5,106.5C 61.5,104.5 61.5,102.5 61.5,100.5 Z"/></g>
<g><path style="opacity:1" fill="#3d352f" d="M 131.5,96.5 C 131.263,97.791 131.596,98.791 132.5,99.5C 132.5,100.5 132.5,101.5 132.5,102.5C 131.414,102.62 130.747,103.287 130.5,104.5C 132.157,107.16 133.824,109.827 135.5,112.5C 132.67,112.694 130.004,113.361 127.5,114.5C 127.701,109.093 128.368,103.76 129.5,98.5C 129.833,97.5 130.5,96.8333 131.5,96.5 Z"/></g>
<g><path style="opacity:1" fill="#f4bd92" d="M 44.5,102.5 C 44.2938,105.495 44.9605,108.162 46.5,110.5C 46.1253,113.397 46.6253,116.063 48,118.5C 49.9551,113.225 50.7884,113.558 50.5,119.5C 47.8333,119.167 45.1667,118.833 42.5,118.5C 42.5,120.167 42.5,121.833 42.5,123.5C 43.5,123.5 44.5,123.5 45.5,123.5C 45.7271,125.933 44.7271,127.599 42.5,128.5C 41.0512,126.836 39.0512,126.002 36.5,126C 35.6634,124.989 35.33,123.822 35.5,122.5C 38.5242,122.825 40.1909,121.492 40.5,118.5C 38.7436,116.068 37.4102,113.401 36.5,110.5C 39.0821,110.975 41.0821,110.308 42.5,108.5C 43.1667,106.5 43.8333,104.5 44.5,102.5 Z"/></g>
<g><path style="opacity:1" fill="#e4bb9e" d="M 111.5,84.5 C 112.5,84.5 113.5,84.5 114.5,84.5C 114.216,86.4147 114.549,88.0813 115.5,89.5C 115.5,91.8333 115.5,94.1667 115.5,96.5C 113.708,105.14 114.708,113.473 118.5,121.5C 116.205,122.136 114.539,123.469 113.5,125.5C 112.311,126.429 110.978,126.762 109.5,126.5C 109.703,124.956 110.37,123.622 111.5,122.5C 109.456,121.935 107.79,120.935 106.5,119.5C 107.496,119.414 108.329,119.748 109,120.5C 109.498,117.183 109.665,113.85 109.5,110.5C 109.833,110.5 110.167,110.5 110.5,110.5C 113.205,107.407 114.538,103.74 114.5,99.5C 113.967,94.3744 112.967,89.3744 111.5,84.5 Z"/></g>
<g><path style="opacity:1" fill="#b39284" d="M 120.5,112.5 C 121.167,112.5 121.833,112.5 122.5,112.5C 123.733,116.006 124.733,119.673 125.5,123.5C 123.5,123.167 121.5,122.833 119.5,122.5C 119.433,119.245 119.766,115.912 120.5,112.5 Z"/></g>
<g><path style="opacity:1" fill="#4f4032" d="M 140.5,115.5 C 137.705,114.132 135.039,114.465 132.5,116.5C 130.578,116.199 128.912,115.533 127.5,114.5C 130.004,113.361 132.67,112.694 135.5,112.5C 140.466,112.538 143.799,110.205 145.5,105.5C 147.708,107.143 149.541,106.81 151,104.5C 151.5,105.5 152,106.5 152.5,107.5C 150.637,109.864 148.971,112.364 147.5,115C 145.19,115.497 142.857,115.663 140.5,115.5 Z"/></g>
<g><path style="opacity:1" fill="#daa582" d="M 68.5,110.5 C 69.5,110.5 70.5,110.5 71.5,110.5C 72.675,110.281 73.675,110.614 74.5,111.5C 73.1667,112.833 71.8333,114.167 70.5,115.5C 71.3202,117.111 72.6536,117.778 74.5,117.5C 75.252,119.1 76.252,120.6 77.5,122C 80.4816,122.498 83.4816,122.665 86.5,122.5C 84.5128,123.343 82.3461,124.01 80,124.5C 76.5532,123.511 73.0532,122.844 69.5,122.5C 71.2242,118 69.5575,116 64.5,116.5C 61.2073,111.778 62.5407,109.778 68.5,110.5 Z"/></g>
<g><path style="opacity:1" fill="#b0836c" d="M 87.5,102.5 C 86.0136,105.371 87.0136,106.705 90.5,106.5C 90.56,107.043 90.8933,107.376 91.5,107.5C 93.5092,106.935 95.1759,105.935 96.5,104.5C 96.5,105.833 96.5,107.167 96.5,108.5C 98.5914,108.682 100.591,108.348 102.5,107.5C 103.575,109.811 103.575,112.144 102.5,114.5C 96.5343,114.348 91.5343,116.348 87.5,120.5C 84.9391,118.906 81.9391,117.906 78.5,117.5C 80.5,116.667 82.5,115.833 84.5,115C 83.9394,113.434 84.6061,112.101 86.5,111C 83.5,110.667 80.5,110.333 77.5,110C 76.944,109.617 76.6107,109.117 76.5,108.5C 79.0101,108.946 81.0101,108.28 82.5,106.5C 84.1667,105.167 85.8333,103.833 87.5,102.5 Z"/></g>
<g><path style="opacity:1" fill="#6e6452" d="M 157.5,104.5 C 157.5,107.833 157.5,111.167 157.5,114.5C 155.94,116.156 154.94,118.156 154.5,120.5C 154.631,119.761 154.464,119.094 154,118.5C 151.528,120.407 148.862,122.073 146,123.5C 145.667,123.167 145.333,122.833 145,122.5C 144.764,124.119 143.931,125.119 142.5,125.5C 141.179,123.186 141.179,120.853 142.5,118.5C 142.058,117.261 141.391,116.261 140.5,115.5C 142.857,115.663 145.19,115.497 147.5,115C 148.971,112.364 150.637,109.864 152.5,107.5C 152,106.5 151.5,105.5 151,104.5C 149.541,106.81 147.708,107.143 145.5,105.5C 145.5,105.167 145.5,104.833 145.5,104.5C 146.795,102.527 148.128,100.527 149.5,98.5C 150.833,99.8333 152.167,99.8333 153.5,98.5C 154.466,100.396 154.799,102.396 154.5,104.5C 155.5,104.5 156.5,104.5 157.5,104.5 Z"/></g>
<g><path style="opacity:1" fill="#bf9176" d="M 70.5,108.5 C 71.8333,108.5 73.1667,108.5 74.5,108.5C 75.1667,108.5 75.8333,108.5 76.5,108.5C 76.6107,109.117 76.944,109.617 77.5,110C 80.5,110.333 83.5,110.667 86.5,111C 84.6061,112.101 83.9394,113.434 84.5,115C 82.5,115.833 80.5,116.667 78.5,117.5C 81.9391,117.906 84.9391,118.906 87.5,120.5C 82.5557,122.178 78.2224,121.178 74.5,117.5C 72.6536,117.778 71.3202,117.111 70.5,115.5C 71.8333,114.167 73.1667,112.833 74.5,111.5C 73.675,110.614 72.675,110.281 71.5,110.5C 71.1667,109.833 70.8333,109.167 70.5,108.5 Z"/></g>
<g><path style="opacity:1" fill="#f7c298" d="M 46.5,110.5 C 48.8333,110.5 51.1667,110.5 53.5,110.5C 54.0084,112.865 54.6751,115.199 55.5,117.5C 54.8333,118.167 54.1667,118.833 53.5,119.5C 54.1272,120.417 54.4606,121.417 54.5,122.5C 51.4299,122.368 48.4299,122.701 45.5,123.5C 44.5,123.5 43.5,123.5 42.5,123.5C 42.5,121.833 42.5,120.167 42.5,118.5C 45.1667,118.833 47.8333,119.167 50.5,119.5C 50.7884,113.558 49.9551,113.225 48,118.5C 46.6253,116.063 46.1253,113.397 46.5,110.5 Z"/></g>
<g><path style="opacity:1" fill="#d9ad96" d="M 101.5,98.5 C 100.735,101.096 100.401,103.763 100.5,106.5C 101.833,106.5 103.167,106.5 104.5,106.5C 103.903,111.294 104.57,115.627 106.5,119.5C 107.79,120.935 109.456,121.935 111.5,122.5C 110.37,123.622 109.703,124.956 109.5,126.5C 107.821,126.285 106.821,126.952 106.5,128.5C 103.913,127.362 101.913,125.529 100.5,123C 97.854,122.503 95.1873,122.336 92.5,122.5C 97.877,122.462 101.21,119.795 102.5,114.5C 103.575,112.144 103.575,109.811 102.5,107.5C 100.591,108.348 98.5914,108.682 96.5,108.5C 96.5,107.167 96.5,105.833 96.5,104.5C 96.5,103.833 96.5,103.167 96.5,102.5C 97.8726,100.793 99.5393,99.4602 101.5,98.5 Z"/></g>
<g><path style="opacity:1" fill="#f7bd95" d="M 25.5,118.5 C 25.8333,118.5 26.1667,118.5 26.5,118.5C 26.8212,120.048 27.8212,120.715 29.5,120.5C 29.5333,124.256 30.5333,127.589 32.5,130.5C 30.5,130.5 28.5,130.5 26.5,130.5C 26.6602,132.199 26.4935,133.866 26,135.5C 24.7083,134.209 23.5417,134.209 22.5,135.5C 19.0969,133.1 16.4302,130.1 14.5,126.5C 14.8333,126.5 15.1667,126.5 15.5,126.5C 19.1318,125.267 20.7984,122.601 20.5,118.5C 22.1667,118.5 23.8333,118.5 25.5,118.5 Z"/></g>
<g><path style="opacity:1" fill="#f2b88b" d="M 36.5,110.5 C 37.4102,113.401 38.7436,116.068 40.5,118.5C 40.1909,121.492 38.5242,122.825 35.5,122.5C 35.33,123.822 35.6634,124.989 36.5,126C 39.0512,126.002 41.0512,126.836 42.5,128.5C 42.5,129.167 42.5,129.833 42.5,130.5C 40.5,130.5 38.5,130.5 36.5,130.5C 36.9822,135.501 35.4822,136.835 32,134.5C 31.1667,134.667 30.3333,134.833 29.5,135C 32.2442,138.462 31.2442,139.962 26.5,139.5C 24.8333,138.5 23.5,137.167 22.5,135.5C 23.5417,134.209 24.7083,134.209 26,135.5C 26.4935,133.866 26.6602,132.199 26.5,130.5C 28.5,130.5 30.5,130.5 32.5,130.5C 30.5333,127.589 29.5333,124.256 29.5,120.5C 27.8212,120.715 26.8212,120.048 26.5,118.5C 27.5,118.5 28.5,118.5 29.5,118.5C 29.5,116.833 29.5,115.167 29.5,113.5C 32.6753,114.091 35.0087,113.091 36.5,110.5 Z"/></g>
<g><path style="opacity:1" fill="#cc9d80" d="M 102.5,114.5 C 101.21,119.795 97.877,122.462 92.5,122.5C 90.5,122.5 88.5,122.5 86.5,122.5C 83.4816,122.665 80.4816,122.498 77.5,122C 76.252,120.6 75.252,119.1 74.5,117.5C 78.2224,121.178 82.5557,122.178 87.5,120.5C 91.5343,116.348 96.5343,114.348 102.5,114.5 Z"/></g>
<g><path style="opacity:1" fill="#625d4e" d="M 154.5,120.5 C 154.757,125.419 153.09,129.419 149.5,132.5C 148.353,132.182 147.519,131.516 147,130.5C 146.066,131.858 145.232,133.192 144.5,134.5C 144.5,131.833 144.5,129.167 144.5,126.5C 142.599,126.754 141.933,126.42 142.5,125.5C 143.931,125.119 144.764,124.119 145,122.5C 145.333,122.833 145.667,123.167 146,123.5C 148.862,122.073 151.528,120.407 154,118.5C 154.464,119.094 154.631,119.761 154.5,120.5 Z"/></g>
<g><path style="opacity:1" fill="#6c6356" d="M 129.5,98.5 C 128.368,103.76 127.701,109.093 127.5,114.5C 128.912,115.533 130.578,116.199 132.5,116.5C 135.039,114.465 137.705,114.132 140.5,115.5C 141.391,116.261 142.058,117.261 142.5,118.5C 141.179,120.853 141.179,123.186 142.5,125.5C 141.933,126.42 142.599,126.754 144.5,126.5C 144.5,129.167 144.5,131.833 144.5,134.5C 144.5,137.5 144.5,140.5 144.5,143.5C 142.216,138.13 140.549,132.464 139.5,126.5C 138.5,126.5 137.5,126.5 136.5,126.5C 134.761,128.425 132.761,130.091 130.5,131.5C 131.084,128.715 130.084,127.048 127.5,126.5C 127.218,125.222 126.551,124.222 125.5,123.5C 124.733,119.673 123.733,116.006 122.5,112.5C 121.85,110.565 121.517,108.565 121.5,106.5C 122.978,106.762 124.311,106.429 125.5,105.5C 126.476,102.837 127.81,100.504 129.5,98.5 Z"/></g>
<g><path style="opacity:1" fill="#e9b28d" d="M 58.5,116.5 C 60.5,117.833 62.5,117.833 64.5,116.5C 69.5575,116 71.2242,118 69.5,122.5C 73.0532,122.844 76.5532,123.511 80,124.5C 82.3461,124.01 84.5128,123.343 86.5,122.5C 88.5,122.5 90.5,122.5 92.5,122.5C 91.0484,123.302 89.3817,123.802 87.5,124C 89.3502,124.69 90.6836,125.856 91.5,127.5C 91.5,128.833 91.5,130.167 91.5,131.5C 90.209,131.263 89.209,131.596 88.5,132.5C 87.6261,133.525 86.4595,134.192 85,134.5C 82.9011,133.713 80.7345,133.38 78.5,133.5C 78.4208,132.07 78.7542,130.736 79.5,129.5C 74.0023,129.277 68.669,129.277 63.5,129.5C 63.5,129.167 63.5,128.833 63.5,128.5C 63.8271,122.785 62.3271,122.119 59,126.5C 52.881,121.486 48.381,122.486 45.5,129.5C 44.791,130.404 43.791,130.737 42.5,130.5C 42.5,129.833 42.5,129.167 42.5,128.5C 44.7271,127.599 45.7271,125.933 45.5,123.5C 48.4299,122.701 51.4299,122.368 54.5,122.5C 55.5676,123.434 56.901,123.768 58.5,123.5C 58.5,121.167 58.5,118.833 58.5,116.5 Z"/></g>
<g><path style="opacity:1" fill="#97554a" d="M 119.5,122.5 C 121.5,122.833 123.5,123.167 125.5,123.5C 126.551,124.222 127.218,125.222 127.5,126.5C 127.919,129.325 126.919,131.491 124.5,133C 124.728,133.399 125.062,133.565 125.5,133.5C 124.1,134.1 123.1,135.1 122.5,136.5C 121.732,137.263 121.232,138.263 121,139.5C 120.617,138.944 120.117,138.611 119.5,138.5C 119.672,137.508 119.338,136.842 118.5,136.5C 119.733,135.024 120.733,133.357 121.5,131.5C 120.927,128.915 119.261,127.915 116.5,128.5C 116.768,130.099 116.434,131.432 115.5,132.5C 112.743,132.622 110.743,131.455 109.5,129C 114.304,129.02 117.637,126.853 119.5,122.5 Z"/></g>
<g><path style="opacity:1" fill="#e5ac88" d="M 63.5,128.5 C 61.4086,128.682 59.4086,128.348 57.5,127.5C 56.5645,131.046 54.8979,134.046 52.5,136.5C 51.1667,137.167 49.8333,137.833 48.5,138.5C 49.339,135.313 50.6724,132.313 52.5,129.5C 52.1667,128.5 51.8333,127.5 51.5,126.5C 49.9288,128.415 47.9288,129.415 45.5,129.5C 48.381,122.486 52.881,121.486 59,126.5C 62.3271,122.119 63.8271,122.785 63.5,128.5 Z"/></g>
<g><path style="opacity:1" fill="#cc877d" d="M 118.5,136.5 C 118.167,136.5 117.833,136.5 117.5,136.5C 117.267,134.938 116.6,133.605 115.5,132.5C 116.434,131.432 116.768,130.099 116.5,128.5C 119.261,127.915 120.927,128.915 121.5,131.5C 120.733,133.357 119.733,135.024 118.5,136.5 Z"/></g>
<g><path style="opacity:1" fill="#583c32" d="M 127.5,126.5 C 130.084,127.048 131.084,128.715 130.5,131.5C 128.989,132.502 127.322,133.169 125.5,133.5C 125.062,133.565 124.728,133.399 124.5,133C 126.919,131.491 127.919,129.325 127.5,126.5 Z"/></g>
<g><path style="opacity:1" fill="#e0b192" d="M 91.5,127.5 C 92.1539,131.316 94.4872,132.983 98.5,132.5C 96.5952,139.731 99.2619,143.398 106.5,143.5C 107.667,144.772 108.501,146.106 109,147.5C 106.333,148.167 103.667,148.833 101,149.5C 100.667,148.833 100.333,148.167 100,147.5C 97.2389,150.241 96.0722,153.574 96.5,157.5C 93.9162,156.952 92.9162,155.285 93.5,152.5C 91.0532,152.385 89.0532,151.385 87.5,149.5C 87.5,147.833 87.5,146.167 87.5,144.5C 83.551,144.307 83.551,143.807 87.5,143C 86.6198,141.644 86.2865,140.144 86.5,138.5C 87.8333,138.5 89.1667,138.5 90.5,138.5C 90.9746,135.918 90.3079,133.918 88.5,132.5C 89.209,131.596 90.209,131.263 91.5,131.5C 91.5,130.167 91.5,128.833 91.5,127.5 Z"/></g>
<g><path style="opacity:1" fill="#707062" d="M 136.5,126.5 C 137.5,126.5 138.5,126.5 139.5,126.5C 140.549,132.464 142.216,138.13 144.5,143.5C 145.833,144.167 147.167,144.833 148.5,145.5C 145.154,150.204 141.821,154.871 138.5,159.5C 138.5,158.5 138.5,157.5 138.5,156.5C 138.5,153.833 138.5,151.167 138.5,148.5C 139.98,145.745 139.813,143.078 138,140.5C 137.667,141.167 137.333,141.833 137,142.5C 135.9,137.117 135.733,131.783 136.5,126.5 Z"/></g>
<g><path style="opacity:1" fill="#5e5e52" d="M 157.5,114.5 C 156.767,121.565 155.6,128.565 154,135.5C 152.914,139.346 151.081,142.68 148.5,145.5C 147.167,144.833 145.833,144.167 144.5,143.5C 144.5,140.5 144.5,137.5 144.5,134.5C 145.232,133.192 146.066,131.858 147,130.5C 147.519,131.516 148.353,132.182 149.5,132.5C 153.09,129.419 154.757,125.419 154.5,120.5C 154.94,118.156 155.94,116.156 157.5,114.5 Z"/></g>
<g><path style="opacity:1" fill="#dba17b" d="M 48.5,138.5 C 46.5,139.167 44.5,139.833 42.5,140.5C 40.1667,140.5 37.8333,140.5 35.5,140.5C 36.9697,137.682 37.9697,134.682 38.5,131.5C 40.099,131.768 41.4324,131.434 42.5,130.5C 43.791,130.737 44.791,130.404 45.5,129.5C 47.9288,129.415 49.9288,128.415 51.5,126.5C 51.8333,127.5 52.1667,128.5 52.5,129.5C 50.6724,132.313 49.339,135.313 48.5,138.5 Z"/></g>
<g><path style="opacity:1" fill="#f9d0a9" d="M 88.5,132.5 C 90.3079,133.918 90.9746,135.918 90.5,138.5C 89.1667,138.5 87.8333,138.5 86.5,138.5C 86.2865,140.144 86.6198,141.644 87.5,143C 83.551,143.807 83.551,144.307 87.5,144.5C 87.5,146.167 87.5,147.833 87.5,149.5C 87.4142,150.496 87.7476,151.329 88.5,152C 86.2511,152.863 84.4178,152.363 83,150.5C 82.3292,151.252 81.4959,151.586 80.5,151.5C 82.4364,149.757 82.7698,147.757 81.5,145.5C 80.1374,146.879 79.1374,146.713 78.5,145C 81.4322,143.524 81.7655,141.857 79.5,140C 80.5046,138.493 81.838,137.327 83.5,136.5C 80.5293,135.325 77.696,135.658 75,137.5C 73.8006,140.885 73.634,144.218 74.5,147.5C 72.1667,147.5 69.8333,147.5 67.5,147.5C 65.653,144.04 64.3197,140.374 63.5,136.5C 62.7975,133.797 61.1308,131.797 58.5,130.5C 60.0453,129.548 61.712,129.215 63.5,129.5C 68.669,129.277 74.0023,129.277 79.5,129.5C 78.7542,130.736 78.4208,132.07 78.5,133.5C 80.7345,133.38 82.9011,133.713 85,134.5C 86.4595,134.192 87.6261,133.525 88.5,132.5 Z"/></g>
<g><path style="opacity:1" fill="#d0a38f" d="M 115.5,96.5 C 116.117,96.6107 116.617,96.944 117,97.5C 118.352,101.916 119.518,106.25 120.5,110.5C 120.5,111.167 120.5,111.833 120.5,112.5C 119.766,115.912 119.433,119.245 119.5,122.5C 117.637,126.853 114.304,129.02 109.5,129C 110.743,131.455 112.743,132.622 115.5,132.5C 116.6,133.605 117.267,134.938 117.5,136.5C 117.179,138.048 116.179,138.715 114.5,138.5C 112.604,134.599 109.938,131.265 106.5,128.5C 106.821,126.952 107.821,126.285 109.5,126.5C 110.978,126.762 112.311,126.429 113.5,125.5C 114.539,123.469 116.205,122.136 118.5,121.5C 114.708,113.473 113.708,105.14 115.5,96.5 Z"/></g>
<g><path style="opacity:1" fill="#e5b89c" d="M 92.5,122.5 C 95.1873,122.336 97.854,122.503 100.5,123C 101.913,125.529 103.913,127.362 106.5,128.5C 109.938,131.265 112.604,134.599 114.5,138.5C 111.489,139.669 108.822,141.336 106.5,143.5C 99.2619,143.398 96.5952,139.731 98.5,132.5C 94.4872,132.983 92.1539,131.316 91.5,127.5C 90.6836,125.856 89.3502,124.69 87.5,124C 89.3817,123.802 91.0484,123.302 92.5,122.5 Z"/></g>
<g><path style="opacity:1" fill="#756d5e" d="M 136.5,126.5 C 135.733,131.783 135.9,137.117 137,142.5C 137.333,141.833 137.667,141.167 138,140.5C 139.813,143.078 139.98,145.745 138.5,148.5C 136.833,148.5 135.167,148.5 133.5,148.5C 133.292,146.08 133.626,143.747 134.5,141.5C 132.74,138.788 132.073,135.788 132.5,132.5C 130.216,133.029 128.216,134.029 126.5,135.5C 125.041,135.433 123.708,135.766 122.5,136.5C 123.1,135.1 124.1,134.1 125.5,133.5C 127.322,133.169 128.989,132.502 130.5,131.5C 132.761,130.091 134.761,128.425 136.5,126.5 Z"/></g>
<g><path style="opacity:1" fill="#eab996" d="M 63.5,128.5 C 63.5,128.833 63.5,129.167 63.5,129.5C 61.712,129.215 60.0453,129.548 58.5,130.5C 61.1308,131.797 62.7975,133.797 63.5,136.5C 63.5,138.167 63.5,139.833 63.5,141.5C 62.448,141.351 61.448,141.517 60.5,142C 62.0368,143.11 62.7035,144.61 62.5,146.5C 61.1667,146.5 59.8333,146.5 58.5,146.5C 60.279,149.286 61.6124,152.286 62.5,155.5C 64.1667,155.5 65.8333,155.5 67.5,155.5C 67.7373,156.791 67.404,157.791 66.5,158.5C 66.5,157.833 66.1667,157.5 65.5,157.5C 63.369,156.686 61.0356,156.186 58.5,156C 59.1667,155.667 59.8333,155.333 60.5,155C 59.1414,153.796 58.1414,152.296 57.5,150.5C 55.664,153.207 53.3306,153.874 50.5,152.5C 51.6888,151.571 53.0222,151.238 54.5,151.5C 54.2716,146.985 54.9383,142.652 56.5,138.5C 54.5168,138.843 53.1834,138.176 52.5,136.5C 54.8979,134.046 56.5645,131.046 57.5,127.5C 59.4086,128.348 61.4086,128.682 63.5,128.5 Z"/></g>
<g><path style="opacity:0.977" fill="#ebb18a" d="M 42.5,130.5 C 41.4324,131.434 40.099,131.768 38.5,131.5C 37.9697,134.682 36.9697,137.682 35.5,140.5C 37.8333,140.5 40.1667,140.5 42.5,140.5C 45.3641,140.064 47.6975,140.897 49.5,143C 45.6437,144.103 41.6437,144.936 37.5,145.5C 36.6518,147.409 36.3184,149.409 36.5,151.5C 32.8197,147.817 29.4864,143.817 26.5,139.5C 31.2442,139.962 32.2442,138.462 29.5,135C 30.3333,134.833 31.1667,134.667 32,134.5C 35.4822,136.835 36.9822,135.501 36.5,130.5C 38.5,130.5 40.5,130.5 42.5,130.5 Z"/></g>
<g><path style="opacity:1" fill="#fcdfbf" d="M 80.5,151.5 C 79.5,151.5 78.5,151.5 77.5,151.5C 77.5,150.5 77.5,149.5 77.5,148.5C 76.5,148.5 75.5,148.5 74.5,148.5C 74.5,148.167 74.5,147.833 74.5,147.5C 73.634,144.218 73.8006,140.885 75,137.5C 77.696,135.658 80.5293,135.325 83.5,136.5C 81.838,137.327 80.5046,138.493 79.5,140C 81.7655,141.857 81.4322,143.524 78.5,145C 79.1374,146.713 80.1374,146.879 81.5,145.5C 82.7698,147.757 82.4364,149.757 80.5,151.5 Z"/></g>
<g><path style="opacity:1" fill="#908271" d="M 138.5,148.5 C 138.5,151.167 138.5,153.833 138.5,156.5C 136.473,156.338 134.473,156.505 132.5,157C 130.51,158.751 128.177,159.751 125.5,160C 122.613,163.389 119.28,166.223 115.5,168.5C 115.92,166.906 116.586,165.406 117.5,164C 116.115,162.403 115.449,160.57 115.5,158.5C 114.878,155.224 112.878,153.891 109.5,154.5C 110.641,153.661 111.974,152.994 113.5,152.5C 115.984,155.037 118.317,155.704 120.5,154.5C 122.114,156.075 124.114,156.741 126.5,156.5C 126.5,155.5 126.5,154.5 126.5,153.5C 127.209,152.596 128.209,152.263 129.5,152.5C 130.029,148.816 129.029,145.65 126.5,143C 127.167,141 127.833,139 128.5,137C 128.164,135.97 127.497,135.47 126.5,135.5C 128.216,134.029 130.216,133.029 132.5,132.5C 132.073,135.788 132.74,138.788 134.5,141.5C 133.626,143.747 133.292,146.08 133.5,148.5C 135.167,148.5 136.833,148.5 138.5,148.5 Z"/></g>
<g><path style="opacity:1" fill="#e2ad89" d="M 52.5,136.5 C 53.1834,138.176 54.5168,138.843 56.5,138.5C 54.9383,142.652 54.2716,146.985 54.5,151.5C 53.0222,151.238 51.6888,151.571 50.5,152.5C 53.3306,153.874 55.664,153.207 57.5,150.5C 58.1414,152.296 59.1414,153.796 60.5,155C 59.8333,155.333 59.1667,155.667 58.5,156C 61.0356,156.186 63.369,156.686 65.5,157.5C 60.7742,156.617 56.7742,157.784 53.5,161C 54.2524,161.671 54.5858,162.504 54.5,163.5C 50.1549,161.771 45.8216,159.938 41.5,158C 39.4611,156.074 37.7945,153.907 36.5,151.5C 36.3184,149.409 36.6518,147.409 37.5,145.5C 41.6437,144.936 45.6437,144.103 49.5,143C 47.6975,140.897 45.3641,140.064 42.5,140.5C 44.5,139.833 46.5,139.167 48.5,138.5C 49.8333,137.833 51.1667,137.167 52.5,136.5 Z"/></g>
<g><path style="opacity:1" fill="#edc19d" d="M 63.5,136.5 C 64.3197,140.374 65.653,144.04 67.5,147.5C 69.8333,147.5 72.1667,147.5 74.5,147.5C 74.5,147.833 74.5,148.167 74.5,148.5C 74.6495,149.552 74.4828,150.552 74,151.5C 71.9824,153.35 70.1491,155.35 68.5,157.5C 70.396,158.466 72.396,158.799 74.5,158.5C 74.5,158.833 74.5,159.167 74.5,159.5C 74.5,159.833 74.5,160.167 74.5,160.5C 69.3986,160.279 66.3986,162.613 65.5,167.5C 62.8427,167.065 60.5093,166.065 58.5,164.5C 61.552,162.978 64.2187,160.978 66.5,158.5C 67.404,157.791 67.7373,156.791 67.5,155.5C 65.8333,155.5 64.1667,155.5 62.5,155.5C 61.6124,152.286 60.279,149.286 58.5,146.5C 59.8333,146.5 61.1667,146.5 62.5,146.5C 62.7035,144.61 62.0368,143.11 60.5,142C 61.448,141.517 62.448,141.351 63.5,141.5C 63.5,139.833 63.5,138.167 63.5,136.5 Z"/></g>
<g><path style="opacity:1" fill="#cf9670" d="M 40.5,145.5 C 43.1667,145.5 45.8333,145.5 48.5,145.5C 48.719,146.675 48.3857,147.675 47.5,148.5C 45.4006,150.271 43.0673,151.605 40.5,152.5C 38.5,152.5 37.5,151.5 37.5,149.5C 37.7867,147.557 38.7867,146.223 40.5,145.5 Z"/></g>
<g><path style="opacity:1" fill="#77574a" d="M 114.5,145.5 C 116.857,145.337 119.19,145.503 121.5,146C 121.818,149.47 123.484,151.97 126.5,153.5C 126.5,154.5 126.5,155.5 126.5,156.5C 124.114,156.741 122.114,156.075 120.5,154.5C 120.5,153.167 120.5,151.833 120.5,150.5C 116.062,151.575 114.062,149.908 114.5,145.5 Z"/></g>
<g><path style="opacity:1" fill="#ab8d7f" d="M 126.5,135.5 C 127.497,135.47 128.164,135.97 128.5,137C 127.833,139 127.167,141 126.5,143C 129.029,145.65 130.029,148.816 129.5,152.5C 128.209,152.263 127.209,152.596 126.5,153.5C 123.484,151.97 121.818,149.47 121.5,146C 119.19,145.503 116.857,145.337 114.5,145.5C 116.58,143.427 118.246,141.093 119.5,138.5C 120.117,138.611 120.617,138.944 121,139.5C 121.232,138.263 121.732,137.263 122.5,136.5C 123.708,135.766 125.041,135.433 126.5,135.5 Z"/></g>
<g><path style="opacity:1" fill="#997566" d="M 114.5,145.5 C 114.062,149.908 116.062,151.575 120.5,150.5C 120.5,151.833 120.5,153.167 120.5,154.5C 118.317,155.704 115.984,155.037 113.5,152.5C 111.974,152.994 110.641,153.661 109.5,154.5C 106.934,154.344 104.434,154.678 102,155.5C 100.743,155.15 100.409,154.483 101,153.5C 105.901,151.586 110.401,148.919 114.5,145.5 Z"/></g>
<g><path style="opacity:1" fill="#c09883" d="M 117.5,136.5 C 117.833,136.5 118.167,136.5 118.5,136.5C 119.338,136.842 119.672,137.508 119.5,138.5C 118.246,141.093 116.58,143.427 114.5,145.5C 110.401,148.919 105.901,151.586 101,153.5C 100.409,154.483 100.743,155.15 102,155.5C 104.434,154.678 106.934,154.344 109.5,154.5C 112.878,153.891 114.878,155.224 115.5,158.5C 113.833,158.5 112.167,158.5 110.5,158.5C 106.865,157.886 103.198,157.552 99.5,157.5C 98.5,157.5 97.5,157.5 96.5,157.5C 96.0722,153.574 97.2389,150.241 100,147.5C 100.333,148.167 100.667,148.833 101,149.5C 103.667,148.833 106.333,148.167 109,147.5C 108.501,146.106 107.667,144.772 106.5,143.5C 108.822,141.336 111.489,139.669 114.5,138.5C 116.179,138.715 117.179,138.048 117.5,136.5 Z"/></g>
<g><path style="opacity:1" fill="#c99971" d="M 65.5,157.5 C 66.1667,157.5 66.5,157.833 66.5,158.5C 64.2187,160.978 61.552,162.978 58.5,164.5C 57.0413,164.567 55.7079,164.234 54.5,163.5C 54.5858,162.504 54.2524,161.671 53.5,161C 56.7742,157.784 60.7742,156.617 65.5,157.5 Z"/></g>
<g><path style="opacity:1" fill="#fadfc0" d="M 74.5,159.5 C 74.5,159.167 74.5,158.833 74.5,158.5C 75.2389,158.631 75.9056,158.464 76.5,158C 75.2068,157.51 73.8734,157.343 72.5,157.5C 72.4609,155.641 73.2942,154.308 75,153.5C 81.7399,154.444 88.2399,156.111 94.5,158.5C 94.5,159.833 94.5,161.167 94.5,162.5C 90.5239,163.331 86.5239,163.497 82.5,163C 80.1287,161.121 77.4621,159.955 74.5,159.5 Z"/></g>
<g><path style="opacity:1" fill="#79715e" d="M 138.5,156.5 C 138.5,157.5 138.5,158.5 138.5,159.5C 133.786,166.54 127.453,171.707 119.5,175C 117.527,175.495 115.527,175.662 113.5,175.5C 111.438,174.224 109.104,173.39 106.5,173C 107.056,172.617 107.389,172.117 107.5,171.5C 109.89,169.98 112.557,168.98 115.5,168.5C 119.28,166.223 122.613,163.389 125.5,160C 128.177,159.751 130.51,158.751 132.5,157C 134.473,156.505 136.473,156.338 138.5,156.5 Z"/></g>
<g><path style="opacity:1" fill="#ecc9aa" d="M 74.5,148.5 C 75.5,148.5 76.5,148.5 77.5,148.5C 77.5,149.5 77.5,150.5 77.5,151.5C 78.5,151.5 79.5,151.5 80.5,151.5C 81.4959,151.586 82.3292,151.252 83,150.5C 84.4178,152.363 86.2511,152.863 88.5,152C 87.7476,151.329 87.4142,150.496 87.5,149.5C 89.0532,151.385 91.0532,152.385 93.5,152.5C 92.9162,155.285 93.9162,156.952 96.5,157.5C 97.5,157.5 98.5,157.5 99.5,157.5C 101.573,161.354 102.239,165.354 101.5,169.5C 99.6208,170.341 97.6208,170.675 95.5,170.5C 94.8333,170.167 94.1667,169.833 93.5,169.5C 91.6221,168.792 89.9555,167.626 88.5,166C 81.7371,162.386 77.4038,164.219 75.5,171.5C 74.5084,171.672 73.8417,171.338 73.5,170.5C 74.4432,168.118 75.7766,165.951 77.5,164C 76.9293,162.401 75.9293,161.234 74.5,160.5C 74.5,160.167 74.5,159.833 74.5,159.5C 77.4621,159.955 80.1287,161.121 82.5,163C 86.5239,163.497 90.5239,163.331 94.5,162.5C 94.5,161.167 94.5,159.833 94.5,158.5C 88.2399,156.111 81.7399,154.444 75,153.5C 73.2942,154.308 72.4609,155.641 72.5,157.5C 73.8734,157.343 75.2068,157.51 76.5,158C 75.9056,158.464 75.2389,158.631 74.5,158.5C 72.396,158.799 70.396,158.466 68.5,157.5C 70.1491,155.35 71.9824,153.35 74,151.5C 74.4828,150.552 74.6495,149.552 74.5,148.5 Z"/></g>
<g><path style="opacity:1" fill="#dfbda4" d="M 99.5,157.5 C 103.198,157.552 106.865,157.886 110.5,158.5C 110.526,164.837 107.526,168.503 101.5,169.5C 102.239,165.354 101.573,161.354 99.5,157.5 Z"/></g>
<g><path style="opacity:1" fill="#bc9071" d="M 74.5,160.5 C 75.9293,161.234 76.9293,162.401 77.5,164C 75.7766,165.951 74.4432,168.118 73.5,170.5C 70.5568,170.02 67.8902,169.02 65.5,167.5C 66.3986,162.613 69.3986,160.279 74.5,160.5 Z"/></g>
<g><path style="opacity:1" fill="#bba58e" d="M 110.5,158.5 C 112.167,158.5 113.833,158.5 115.5,158.5C 115.449,160.57 116.115,162.403 117.5,164C 116.586,165.406 115.92,166.906 115.5,168.5C 112.557,168.98 109.89,169.98 107.5,171.5C 103.298,171.817 99.2984,171.483 95.5,170.5C 97.6208,170.675 99.6208,170.341 101.5,169.5C 107.526,168.503 110.526,164.837 110.5,158.5 Z"/></g>
<g><path style="opacity:0.349" fill="#b69477" d="M 93.5,169.5 C 92.5,169.5 91.5,169.5 90.5,169.5C 90.5,171.167 90.5,172.833 90.5,174.5C 85.4678,173.659 80.4678,172.659 75.5,171.5C 77.4038,164.219 81.7371,162.386 88.5,166C 89.9555,167.626 91.6221,168.792 93.5,169.5 Z"/></g>
<g><path style="opacity:0.849" fill="#927c64" d="M 93.5,169.5 C 94.1667,169.833 94.8333,170.167 95.5,170.5C 99.2984,171.483 103.298,171.817 107.5,171.5C 107.389,172.117 107.056,172.617 106.5,173C 109.104,173.39 111.438,174.224 113.5,175.5C 105.854,176.984 98.1877,176.651 90.5,174.5C 90.5,172.833 90.5,171.167 90.5,169.5C 91.5,169.5 92.5,169.5 93.5,169.5 Z"/></g>
</svg>
